<?xml version="1.0" encoding="UTF-8" standalone="no"?>
<!-- Created with Inkscape (http://www.inkscape.org/) -->

<svg
   width="483.88361mm"
   height="147.36336mm"
   viewBox="0 0 483.88361 147.36336"
   version="1.1"
   id="svg5"
   sodipodi:docname="title.svg"
   inkscape:version="1.2.2 (732a01da63, 2022-12-09)"
   xmlns:inkscape="http://www.inkscape.org/namespaces/inkscape"
   xmlns:sodipodi="http://sodipodi.sourceforge.net/DTD/sodipodi-0.dtd"
   xmlns="http://www.w3.org/2000/svg"
   xmlns:svg="http://www.w3.org/2000/svg">
  <sodipodi:namedview
     id="namedview7"
     pagecolor="#ffffff"
     bordercolor="#000000"
     borderopacity="0.25"
     inkscape:showpageshadow="2"
     inkscape:pageopacity="0.0"
     inkscape:pagecheckerboard="0"
     inkscape:deskcolor="#d1d1d1"
     inkscape:document-units="mm"
     showgrid="false"
     inkscape:zoom="0.43753293"
     inkscape:cx="382.82833"
     inkscape:cy="427.3964"
     inkscape:window-width="1920"
     inkscape:window-height="1009"
     inkscape:window-x="2552"
     inkscape:window-y="-8"
     inkscape:window-maximized="1"
     inkscape:current-layer="layer1" />
  <defs
     id="defs2">
    <rect
       x="417.05194"
       y="528.08527"
       width="8.1243887"
       height="167.90404"
       id="rect398" />
    <filter
       y="-0.16418952"
       height="1.3283733"
       inkscape:menu-tooltip="Darkens the edge with an inner blur and adds a flexible glow"
       inkscape:menu="Shadows and Glows"
       inkscape:label="Dark and Glow"
       style="color-interpolation-filters:sRGB"
       id="filter2213"
       x="-0.038506713"
       width="1.0770157">
      <feGaussianBlur
         stdDeviation="5"
         result="result6"
         id="feGaussianBlur2203" />
      <feComposite
         result="result8"
         in="SourceGraphic"
         operator="atop"
         in2="result6"
         id="feComposite2205" />
      <feComposite
         result="result9"
         operator="over"
         in2="SourceAlpha"
         in="result8"
         id="feComposite2207" />
      <feColorMatrix
         values="1 0 0 0 0 0 1 0 0 0 0 0 1 0 0 0 0 0 1 0 "
         result="result10"
         id="feColorMatrix2209" />
      <feBlend
         in="result10"
         mode="normal"
         in2="result6"
         id="feBlend2211" />
    </filter>
    <filter
       style="color-interpolation-filters:sRGB;"
       inkscape:label="Blur"
       id="filter3698"
       x="-0.084842169"
       y="-0.76765516"
       width="1.1696843"
       height="2.5353103">
      <feGaussianBlur
         stdDeviation="7.55642 6.29868"
         result="fbSourceGraphic"
         id="feGaussianBlur3696" />
      <feColorMatrix
         result="fbSourceGraphicAlpha"
         in="fbSourceGraphic"
         values="0 0 0 -1 0 0 0 0 -1 0 0 0 0 -1 0 0 0 0 1 0"
         id="feColorMatrix3700" />
      <feGaussianBlur
         id="feGaussianBlur3702"
         stdDeviation="7.55642 6.29868"
         result="blur"
         in="fbSourceGraphic" />
    </filter>
  </defs>
  <g
     inkscape:label="Layer 1"
     inkscape:groupmode="layer"
     id="layer1"
     transform="translate(-17.805317,-49.389583)">
    <path
       style="fill:#fff955;fill-opacity:1;stroke:none;stroke-width:0.560848;stroke-dasharray:none;stroke-opacity:0.995413;filter:url(#filter3698)"
       id="path2521-5-2"
       d="m 83.673362,171.92875 c 2.66296,-0.80041 5.3039,-1.66564 7.99684,-2.37946 3.45518,-0.91588 6.95988,-1.67173 10.439808,-2.50759 22.02123,-4.64649 44.36604,-8.01878 66.80759,-10.50247 4.8842,-0.54057 9.77928,-0.99775 14.66891,-1.49662 26.2958,-2.33568 52.73286,-3.29207 79.14985,-3.44994 5.48779,-0.0328 10.97577,0.0324 16.46366,0.0486 24.17912,-0.18292 48.31703,1.33353 72.40378,3.06009 6.36308,0.45612 12.72863,0.88853 19.08517,1.41378 6.78559,0.56071 13.55973,1.22932 20.33958,1.84397 23.3407,2.59899 46.595,5.97879 69.58594,10.46812 24.66012,2.64003 6.00058,-11.52956 -6.23383,-13.82533 -27.20341,-5.10468 -55.1061,-6.42125 -82.65665,-9.61313 -12.74347,-1.40703 -28.24508,-3.21337 -41.08832,-4.26865 -24.46811,-2.01044 -49.05549,-2.50002 -73.58112,-3.62741 -5.52373,-0.0217 -11.04742,-0.082 -16.57117,-0.065 -26.76818,0.0819 -53.55254,1.06264 -80.23056,3.04099 -4.98341,0.46209 -9.97339,0.8696 -14.95024,1.38625 -23.08036,2.39599 -27.36856,3.31411 -65.871148,11.07182 -38.5026,7.75771 -53.8358,34.34782 4.24191,19.40193 z"
       sodipodi:nodetypes="cscscscssccccscccszc" />
    <path
       style="fill:#fff955;fill-opacity:1;stroke:#fbff14;stroke-width:0.560848;stroke-dasharray:none;stroke-opacity:0.99541283"
       id="path2521-5"
       d="m 83.183311,172.2407 c 2.66296,-0.80041 5.3039,-1.66564 7.99684,-2.37946 3.45518,-0.91588 6.95988,-1.67173 10.439809,-2.50759 22.02123,-4.64649 44.36604,-8.01878 66.80759,-10.50247 4.8842,-0.54057 9.77928,-0.99775 14.66891,-1.49662 26.2958,-2.33568 52.73286,-3.29207 79.14985,-3.44994 5.48779,-0.0328 10.97577,0.0324 16.46366,0.0486 24.17912,-0.18292 48.31703,1.33353 72.40378,3.06009 6.36308,0.45612 12.72863,0.88853 19.08517,1.41378 6.78559,0.56071 13.55973,1.22932 20.33958,1.84397 23.3407,2.59899 46.595,5.97879 69.58594,10.46812 24.66012,2.64003 6.00058,-11.52956 -6.23383,-13.82533 -27.20341,-5.10468 -55.1061,-6.42125 -82.65665,-9.61313 -12.74347,-1.40703 -28.24508,-3.21337 -41.08832,-4.26865 -24.46811,-2.01044 -49.05549,-2.50002 -73.58112,-3.62741 -5.52373,-0.0217 -11.04742,-0.082 -16.57117,-0.065 -26.76818,0.0819 -53.55254,1.06264 -80.23056,3.04099 -4.98341,0.46209 -9.97339,0.8696 -14.95024,1.38625 -23.08036,2.39599 -27.36856,3.31411 -65.871149,11.07182 -38.5026,7.75771 -53.8358,34.34782 4.24191,19.40193 z"
       sodipodi:nodetypes="cscscscssccccscccszc" />
    <text
       xml:space="preserve"
       transform="scale(0.26458333)"
       id="text396"
       style="font-style:normal;font-variant:normal;font-weight:normal;font-stretch:normal;font-size:90.1316px;font-family:magic;-inkscape-font-specification:magic;white-space:pre;shape-inside:url(#rect398);fill:#ffdd55;stroke-width:77.3783" />
    <g
       aria-label="Biblioteca Mágica "
       transform="matrix(1.3799421,0,0,1.4528877,-113.76023,-85.604323)"
       id="text1254"
       style="font-size:37.7938px;font-family:magic;-inkscape-font-specification:'magic, Normal';fill:#fff955;fill-opacity:1;stroke:#f8e448;stroke-width:1.074;stroke-dasharray:none;stroke-opacity:0.995413;filter:url(#filter2213)"
       inkscape:label="text1254">
      <path
         d="m 110.42061,139.55783 q -0.084,0.13658 -0.23106,0.17162 -0.33088,0.0789 -0.74937,-0.20992 -0.42726,-0.32555 -0.52364,-0.72996 -0.035,-0.14705 0.0594,-0.40269 0.95551,-1.85952 2.45733,-3.38301 1.52982,-1.56902 3.33985,-2.77745 1.83802,-1.25395 3.88272,-2.12978 2.0447,-0.87584 4.10349,-1.3665 2.80284,-0.62915 4.96505,-0.52283 2.16222,0.10632 3.7223,0.78353 1.55132,0.64043 2.48298,1.77823 0.95966,1.09226 1.30137,2.52606 0.368,1.54409 0.0182,3.33695 -0.34975,1.79286 -1.38755,3.63314 -1.04656,1.80352 -2.80745,3.54417 -1.76088,1.74065 -4.2239,3.14355 1.91174,-0.45562 3.43144,-0.27387 1.55647,0.17298 2.73138,0.86427 1.16615,0.65453 1.93323,1.75384 0.75832,1.06255 1.07375,2.38606 0.41181,1.72791 0.0779,3.75012 -0.34272,1.98544 -1.52929,4.01659 -1.48583,2.56869 -3.98904,4.292 -2.46645,1.71454 -5.40758,2.41549 -2.61025,0.6221 -5.31174,0.37233 -2.66472,-0.25852 -5.01626,-1.48529 -2.31479,-1.23553 -4.13257,-3.48311 -1.78979,-2.29311 -2.59589,-5.6754 -0.0701,-0.29412 -0.14895,-0.62499 -0.0789,-0.33088 -0.0667,-0.60575 0.049,-0.28364 0.19773,-0.47451 0.14001,-0.22763 0.47089,-0.30648 0.4044,-0.0964 0.71432,0.0629 0.34669,0.15049 0.44307,0.55489 0.0701,0.29412 0.10343,0.59699 0.0613,0.25735 0.13142,0.55146 0.67467,2.83084 2.10197,4.74411 1.41853,1.87651 3.25881,2.9143 1.84028,1.0378 3.91849,1.2807 2.11498,0.23414 4.137,-0.24777 2.72055,-0.64838 4.94013,-2.42064 2.24758,-1.81779 3.33244,-4.60175 0.48118,-1.24139 0.58425,-2.27612 0.10307,-1.03472 -0.0985,-1.8803 -0.26285,-1.10292 -1.0246,-1.85383 -0.76175,-0.75091 -1.86657,-1.14809 -1.10482,-0.39718 -2.47918,-0.45815 -1.37436,-0.061 -2.90798,0.18797 -1.68067,0.28399 -2.43004,0.0741 -0.72137,-0.25546 -0.84404,-0.77015 -0.0789,-0.33088 0.0629,-0.71433 0.14173,-0.38345 0.43927,-0.76518 0.32555,-0.42726 0.75091,-0.76175 0.45337,-0.38001 0.93302,-0.64974 2.21271,-1.14899 3.93511,-2.72505 1.72241,-1.57607 2.84078,-3.24129 1.11837,-1.66523 1.58547,-3.29179 0.46709,-1.62656 0.15166,-2.95007 -0.21904,-0.9191 -0.85298,-1.62277 -0.64269,-0.74043 -1.78427,-1.12885 -1.10482,-0.39718 -2.69977,-0.40558 -1.59495,-0.008 -3.6905,0.49102 -1.69115,0.40305 -3.41374,1.16326 -1.68582,0.75145 -3.26478,1.78825 -1.54219,1.02804 -2.89524,2.36067 -1.31628,1.32387 -2.24036,2.82623 z m 8.37506,21.12112 q -0.0524,0.59527 -0.43223,0.95776 -0.37984,0.3625 -0.89453,0.48516 -2.20585,0.52572 -3.02947,-2.93011 -0.27162,-1.13969 -0.32094,-2.48776 -0.0581,-1.38485 0.003,-2.75921 0.061,-1.37436 0.18499,-2.64719 0.15203,-1.31836 0.27262,-2.27956 0.28843,-2.05021 0.45608,-3.95508 0.19565,-1.95039 0.17949,-3.81145 -0.0545,-0.88062 0.42861,-1.46198 0.48309,-0.58136 1.10808,-0.73031 0.62499,-0.14896 1.24483,0.16955 0.61984,0.3185 0.82136,1.16407 l 0.0368,-0.009 q 0.14705,-0.0351 0.21715,0.25907 0.1139,0.47793 0.0354,1.77876 -0.0785,1.30084 -0.24443,3.04989 -0.1747,1.71229 -0.35283,3.73621 -0.17813,2.02392 -0.30026,3.95679 -0.12213,1.93287 -0.10425,3.63811 0.0179,1.70524 0.28074,2.80816 0.0789,0.33088 0.18572,0.61623 0.10686,0.28535 0.2242,0.45165 z"
         id="path1314"
         style="fill:#fff955;fill-opacity:1;stroke:#f8e448;stroke-width:1.074;stroke-dasharray:none;stroke-opacity:0.995413" />
      <path
         d="m 140.39588,147.32532 q 0.45192,-0.46751 1.26963,-0.61809 0.63187,-0.11636 1.17667,0.12918 0.54479,0.24554 0.68853,1.02609 0.0821,0.44602 0.0156,0.91943 -0.0499,0.35505 -0.29744,1.51508 -0.24753,1.16003 -0.47748,2.62426 -0.19962,1.42021 -0.31806,2.86391 -0.0813,1.43685 0.0762,2.29173 0.17796,0.96639 0.69832,0.87057 0.33452,-0.0616 1.08284,-1.00642 0.78548,-0.95166 1.75586,-2.36009 0.97038,-1.40843 2.00435,-3.09757 1.03397,-1.68915 1.94664,-3.20224 0.91268,-1.51309 1.54559,-2.66723 0.67008,-1.16099 0.83149,-1.53657 0.1751,-0.30125 0.48224,-0.51153 0.34431,-0.21712 0.67883,-0.27872 0.29735,-0.0548 0.51058,0.0597 0.20637,0.0773 0.26113,0.37464 0.0548,0.29735 -0.0323,0.65925 -0.14382,0.67978 -0.89119,2.04714 -0.71019,1.36052 -1.75101,3.0125 -1.04081,1.65197 -2.28411,3.45652 -1.25014,1.76738 -2.43668,3.25405 -1.18655,1.48666 -2.19505,2.47939 -1.00849,0.99273 -1.6032,1.10224 -0.89205,0.16427 -1.54835,-0.0607 -0.69347,-0.21817 -1.13751,-0.75127 -0.4812,-0.52625 -0.77361,-1.27942 -0.33642,-0.78349 -0.50754,-1.71271 -0.2464,-1.33808 -0.20914,-2.80525 -0.007,-1.4975 0.20655,-2.84338 0.21331,-1.34587 0.55572,-2.40809 0.30523,-1.05537 0.67597,-1.54636 z m 2.68508,-2.5312 q -0.4793,0.31884 -0.85098,0.38728 -0.66904,0.1232 -1.13656,-0.32871 -0.46751,-0.45192 -0.58387,-1.08379 -0.16427,-0.89206 0.38842,-1.64713 0.54583,-0.79224 1.25204,-0.92229 0.74338,-0.13689 1.36641,0.32482 0.61619,0.42454 0.74624,1.13075 0.0958,0.52036 -0.18689,1.072 -0.24554,0.5448 -0.99481,1.06707 z"
         id="path1316"
         style="fill:#fff955;fill-opacity:1;stroke:#f8e448;stroke-width:1.074;stroke-dasharray:none;stroke-opacity:0.995413" />
      <path
         d="m 153.48163,153.39834 q -0.15192,-0.47331 -0.22921,-0.95851 -0.12055,-0.51659 -0.20972,-1.07644 -0.36263,-2.27672 -0.32923,-5.19058 -0.01,-2.94523 0.35515,-6.1798 0.36502,-3.23456 1.08544,-6.64055 0.71448,-3.4433 1.76321,-6.71023 1.08605,-3.27287 2.44955,-6.2455 1.36349,-2.97263 3.05199,-5.34643 1.68255,-2.41112 3.64518,-4.02491 1.99401,-1.65706 4.27239,-2.24958 0.2867,-0.1222 0.58528,-0.16976 0.29859,-0.0476 0.59718,-0.0951 1.97813,-0.31507 3.57213,0.0816 1.63132,0.39076 2.81739,1.34995 1.18013,0.92187 1.90907,2.37484 0.76031,1.40971 1.03377,3.12658 0.32102,2.01546 -0.0314,4.36781 -0.32108,2.30908 -1.39457,4.69974 -1.07944,2.35333 -2.89774,4.63299 -1.8183,2.27967 -4.44846,4.26767 -2.63611,1.95069 -6.11379,3.42309 -3.44037,1.46646 -7.75799,2.2307 -0.43139,2.09703 -0.73133,4.05831 -0.29993,1.96128 -0.46246,3.82414 -0.0889,1.12399 -0.0971,2.27342 -0.0142,1.1121 -0.0284,2.2242 l 1.63898,-4.12635 q 0.41718,-0.98493 0.97176,-2.06829 0.58595,-1.12662 1.31955,-2.04714 0.72765,-0.95784 1.61483,-1.63493 0.88718,-0.67709 1.93224,-0.84355 0.93308,-0.14862 1.60753,0.24147 0.71178,0.38414 1.16659,1.0771 0.49213,0.68702 0.78409,1.559 0.29197,0.87199 0.42276,1.6931 0.0476,0.29859 0.0578,0.60312 0.0416,0.26126 0.0832,0.52252 0.84985,-0.67114 1.36975,-1.25146 0.51394,-0.61765 0.91592,-1.21745 0.4393,-0.60576 0.84127,-1.20557 0.40198,-0.5998 0.99057,-1.22934 0.35111,-0.43862 0.79899,-0.50996 0.70915,-0.11295 0.81615,0.55887 0.0594,0.37323 -0.17374,0.83135 -1.15672,1.86812 -2.50434,3.49877 -1.3103,1.6247 -3.14577,2.83553 -0.1982,1.63892 -0.71447,3.44331 -0.52222,1.76706 -1.42791,3.28905 -0.90569,1.52198 -2.22457,2.61226 -1.31888,1.09029 -3.07307,1.36969 -1.60491,0.25563 -2.56869,-0.50935 -0.96379,-0.76497 -1.15997,-1.99664 -0.20212,-1.269 0.40927,-2.47621 0.64277,-1.25049 1.70039,-2.29916 1.05167,-1.08599 2.36889,-1.94639 1.31128,-0.89772 2.47756,-1.50445 0.0347,-0.50304 0.0235,-1.53455 0.0202,-1.07478 -0.12845,-2.00786 -0.10701,-0.67182 -0.32764,-1.09592 -0.18331,-0.43005 -0.59386,-0.36466 -0.37324,0.0594 -0.7871,0.58461 -0.41981,0.48784 -0.8099,1.1623 -0.35871,0.63119 -0.67415,1.29375 -0.27812,0.65662 -0.44855,1.0282 -0.39174,0.90434 -0.91065,2.21164 -0.48754,1.26403 -1.05566,2.50262 -0.57407,1.20128 -1.19569,2.10396 -0.62163,0.90269 -1.29345,1.00969 -0.29859,0.0476 -0.52087,-0.14666 -0.22229,-0.19421 -0.38776,-0.51229 -0.2028,-0.31213 -0.34284,-0.7108 -0.14598,-0.43599 -0.2487,-0.8406 z m 4.10612,-16.26825 q 4.09368,-0.72857 7.27278,-2.15342 3.1791,-1.42484 5.56583,-3.25926 2.38079,-1.87175 3.98704,-4.0411 1.64357,-2.17529 2.56017,-4.34961 0.94798,-2.21758 1.22413,-4.32816 0.27616,-2.11057 -0.009,-3.90209 -0.20807,-1.30632 -0.71638,-2.33519 -0.47693,-1.07214 -1.23626,-1.75487 -0.72796,-0.726 -1.73238,-1.02526 -0.9671,-0.30521 -2.12412,-0.12092 -2.16476,0.3448 -3.97809,1.93481 -1.81929,1.55269 -3.32117,3.89677 -1.4705,2.3008 -2.65927,5.16906 -1.19471,2.83094 -2.11033,5.73223 -0.91561,2.90129 -1.58186,5.68632 -0.67218,2.74771 -1.1409,4.85069 z m 1.52634,20.1549 q 0.85843,-0.13673 1.39781,-0.83496 0.57671,-0.70418 0.93542,-1.33537 0.53509,-0.96544 0.86573,-2.01313 0.32469,-1.08501 0.54336,-2.11487 -0.73623,0.42343 -1.6353,1.02588 -0.86769,0.55917 -1.59369,1.28713 -0.69462,0.68469 -1.13557,1.52033 -0.40363,0.82969 -0.25501,1.76278 0.0535,0.33591 0.24441,0.57339 0.22228,0.19422 0.63284,0.12882 z"
         id="path1318"
         style="fill:#fff955;fill-opacity:1;stroke:#f8e448;stroke-width:1.074;stroke-dasharray:none;stroke-opacity:0.995413" />
      <path
         d="m 190.12012,106.91445 q 0.29477,-0.0772 0.5945,-0.11685 0.29974,-0.0397 0.59947,-0.0794 1.98574,-0.26296 3.56875,0.17551 1.58302,0.43848 2.74346,1.42852 1.16045,0.99004 1.85094,2.46168 0.72299,1.42921 0.95618,3.19014 0.27288,2.06067 -0.13634,4.44041 -0.40921,2.37974 -1.57769,4.78377 -1.16847,2.40404 -3.11109,4.71997 -1.91011,2.2735 -4.66656,4.20159 -2.75645,1.92809 -6.37908,3.36091 -3.58517,1.42785 -8.10872,2.10313 -0.1278,0.47441 -0.28861,1.56317 -0.16577,1.05129 -0.39433,2.49213 -0.19606,1.39842 -0.39485,3.06407 -0.16628,1.62321 -0.30006,3.204 -0.10128,1.53836 -0.14746,2.91693 -0.0137,1.33615 0.10539,2.23535 0.17365,1.31133 0.69819,1.24187 0.3372,-0.0446 1.30962,-1.05027 1.00989,-1.01058 2.3024,-2.47795 1.28755,-1.50483 2.73266,-3.25927 1.44512,-1.75444 2.68528,-3.32924 1.27266,-1.61724 2.14534,-2.80027 0.90519,-1.22545 1.08533,-1.59242 0.26005,-0.33943 0.61487,-0.53891 0.38732,-0.24191 0.72452,-0.28656 0.56201,-0.0744 0.63147,0.45011 0.0347,0.26227 -0.0705,0.61931 -0.22035,0.63916 -1.17566,2.06188 -0.96027,1.38524 -2.32549,3.16723 -1.36522,1.78198 -2.97782,3.7111 -1.61757,1.89164 -3.11999,3.50118 -1.50243,1.60953 -2.73216,2.68735 -1.22972,1.07781 -1.8617,1.19963 l -0.2248,0.0298 q -1.76093,0.23319 -2.75612,-1.23622 -1.00014,-1.50687 -1.35737,-4.20448 -0.30265,-2.28547 -0.12764,-5.28229 0.13257,-3.02934 0.68002,-6.38047 0.54249,-3.38861 1.48222,-6.94418 0.93974,-3.55558 2.20401,-6.96352 1.25932,-3.44541 2.83051,-6.55087 1.5712,-3.10547 3.41904,-5.56135 1.84287,-2.49334 3.91226,-4.13983 2.1019,-1.68892 4.3576,-2.21637 z m -13.20239,28.70179 q 4.11142,-0.62069 7.36931,-1.92896 3.29039,-1.3507 5.79946,-3.13166 2.50907,-1.78096 4.25169,-3.87979 1.78009,-2.10379 2.82847,-4.26318 1.04341,-2.19685 1.41243,-4.3044 0.40152,-2.14998 0.16336,-3.94838 -0.20342,-1.53613 -0.84925,-2.67057 -0.60837,-1.1394 -1.50432,-1.85947 -0.90092,-0.75755 -2.04203,-1.0258 -1.10861,-0.31068 -2.34501,-0.14695 -1.5736,0.20838 -3.19784,1.18595 -1.62424,0.97756 -2.97953,2.83448 -1.16523,1.56488 -2.16844,3.48954 -1.00818,1.8872 -1.87418,3.98432 -0.87097,2.05964 -1.61465,4.21681 -0.70621,2.1522 -1.30995,4.21458 -0.60374,2.06238 -1.11988,3.92255 -0.47868,1.8552 -0.81964,3.31093 z"
         id="path1320"
         style="fill:#fff955;fill-opacity:1;stroke:#f8e448;stroke-width:1.074;stroke-dasharray:none;stroke-opacity:0.995413" />
      <path
         d="m 188.32222,139.85196 q 0.48402,-0.43419 1.31037,-0.52624 0.63855,-0.0711 1.1645,0.21253 0.52596,0.28367 0.61382,1.07246 0.0502,0.45073 -0.0498,0.91821 -0.075,0.3506 -0.40442,1.4901 -0.32941,1.13949 -0.6629,2.58365 -0.30011,1.40243 -0.52091,2.83404 -0.18325,1.42743 -0.087,2.29135 0.10879,0.9766 0.63465,0.91802 0.33805,-0.0377 1.15166,-0.92687 0.85118,-0.89339 1.91926,-2.22924 1.06807,-1.33586 2.21955,-2.9472 1.15147,-1.61134 2.16944,-3.0557 1.01796,-1.44435 1.73135,-2.55056 0.75094,-1.11039 0.93866,-1.47355 0.19608,-0.28804 0.51739,-0.47594 0.35888,-0.19208 0.69694,-0.22974 0.30049,-0.0335 0.50503,0.0958 0.20036,0.0918 0.23383,0.39226 0.0335,0.30049 -0.0791,0.65528 -0.19181,0.66783 -1.03452,1.97859 -0.80514,1.30656 -1.9608,2.88034 -1.15566,1.57378 -2.52414,3.28535 -1.37266,1.674 -2.66192,3.07252 -1.28926,1.39852 -2.36581,2.31702 -1.07654,0.9185 -1.67752,0.98544 -0.90148,0.10042 -1.54012,-0.17069 -0.6762,-0.26693 -1.0812,-0.83025 -0.44256,-0.55915 -0.68067,-1.3312 -0.27985,-0.80543 -0.38445,-1.74447 -0.15063,-1.35222 -0.009,-2.81302 0.0998,-1.49419 0.40823,-2.82149 0.30849,-1.3273 0.72556,-2.36247 0.37952,-1.03099 0.78423,-1.49438 z m 2.85829,-2.33385 q -0.50076,0.28395 -0.87637,0.32579 -0.67611,0.0753 -1.1103,-0.40871 -0.43419,-0.48402 -0.50532,-1.12257 -0.10042,-0.90147 0.50456,-1.61533 0.60079,-0.75142 1.31446,-0.83092 0.75123,-0.0837 1.33985,0.42117 0.58444,0.46728 0.66394,1.18095 0.0586,0.52586 -0.26265,1.056 -0.28366,0.52596 -1.06817,0.99362 z"
         id="path1322"
         style="fill:#fff955;fill-opacity:1;stroke:#f8e448;stroke-width:1.074;stroke-dasharray:none;stroke-opacity:0.995413" />
      <path
         d="m 205.588,131.88897 q 0.46053,-1.67171 1.77109,-2.73501 1.30726,-1.10096 2.88854,-1.23952 1.28008,-0.11216 2.22986,0.33575 0.94647,0.41027 1.5805,1.15142 0.63402,0.74116 0.94569,1.70025 0.34603,0.91815 0.4285,1.85939 0.18805,2.14602 -0.40465,4.47427 -0.5927,2.32825 -1.47533,4.3784 0.22919,0.0179 0.45839,0.0357 0.2259,-0.0198 0.45179,-0.0396 1.20479,-0.10557 2.29139,-0.69399 1.12095,-0.62936 2.0715,-1.47143 0.98491,-0.88301 1.80932,-1.86578 0.85876,-1.02371 1.50153,-1.91468 0.31575,-0.29324 0.65459,-0.32293 0.3012,-0.0264 0.54029,0.10441 0.2391,0.1308 0.26549,0.432 0.0198,0.2259 -0.08,0.38639 -0.41686,0.87118 -1.26243,2.04549 -0.84557,1.17431 -2.07423,2.30632 -1.23195,1.09435 -2.7915,1.9139 -1.5219,0.81625 -3.32908,0.97461 -0.79064,0.0693 -1.51588,0.019 -0.49546,0.84013 -1.10387,1.69015 -0.60841,0.85002 -1.37732,1.60029 -0.73456,0.70933 -1.67715,1.20925 -0.90825,0.45897 -2.03774,0.55794 -1.46833,0.12866 -2.5687,-0.30606 -1.10038,-0.43472 -1.8196,-1.28222 -0.71922,-0.84751 -1.12268,-1.98825 -0.40677,-1.17839 -0.51894,-2.45848 -0.25402,-2.89901 0.78523,-5.7596 0.27287,-0.78268 0.69633,-1.57856 0.42346,-0.79588 0.96977,-1.4887 0.58396,-0.69613 1.25971,-1.2106 0.71011,-0.55543 1.55955,-0.81956 z m 6.07978,9.63481 q 0.37592,-0.90553 0.74523,-1.88635 0.36602,-1.01848 0.65674,-2.03036 0.28743,-1.04953 0.42755,-2.04821 0.13682,-1.03633 0.0543,-1.97757 -0.0594,-0.67769 -0.30701,-1.33889 -0.21328,-0.70214 -0.63926,-1.23389 -0.42928,-0.56941 -1.02701,-0.89642 -0.59774,-0.327 -1.42603,-0.25443 -0.90359,0.0792 -1.53509,0.66566 -0.59716,0.54553 -0.94202,1.37246 -0.31052,0.78598 -0.41629,1.74371 -0.10907,0.92008 -0.0365,1.74837 0.0891,1.01654 0.3697,2.05423 0.31827,1.0344 0.84924,1.8984 0.56532,0.82305 1.34005,1.43806 0.80907,0.57406 1.88635,0.74523 z m -1.01208,1.8718 q -1.24437,-0.34622 -2.17959,-1.06099 -0.89757,-0.71806 -1.54809,-1.64746 -0.65382,-0.96705 -1.05729,-2.10779 -0.36581,-1.14405 -0.54668,-2.34223 -0.43472,1.10037 -0.70041,2.83089 -0.26569,1.73052 -0.11723,3.42475 0.066,0.75299 0.25151,1.57138 0.21988,0.77744 0.54281,1.43204 0.36058,0.6513 0.81431,1.06681 0.48808,0.37455 1.09048,0.32177 0.52709,-0.0462 1.06214,-0.43452 0.53175,-0.42598 0.97831,-0.95831 0.44326,-0.56998 0.81121,-1.13337 0.36796,-0.56338 0.59852,-0.96297 z"
         id="path1324"
         style="fill:#fff955;fill-opacity:1;stroke:#f8e448;stroke-width:1.074;stroke-dasharray:none;stroke-opacity:0.995413" />
      <path
         d="m 226.90619,117.02471 q -1.28961,-0.031 -3.38092,-0.16219 -2.05602,-0.17129 -4.35673,-0.0239 -2.33842,0.14976 -4.52747,0.85802 -2.19146,0.67055 -3.67651,2.31838 -0.20939,0.27851 -0.51113,0.29783 -0.30173,0.0193 -0.54735,-0.26791 -0.28334,-0.28483 -0.3075,-0.66199 -0.0314,-0.49032 0.35691,-0.93177 1.88303,-1.93842 4.22053,-2.69406 2.33507,-0.79336 4.74893,-0.94795 2.56473,-0.16425 4.85187,0.068 2.32487,0.22982 3.91621,0.24152 0.32885,-0.77849 0.72106,-1.75039 0.42993,-0.97431 0.94254,-1.84031 0.5479,-0.90613 1.19057,-1.51536 0.64025,-0.64694 1.39458,-0.69525 0.79205,-0.0507 1.42691,0.40094 0.63487,0.45167 0.67352,1.05513 0.0217,0.33945 -0.11705,0.5377 -0.61127,1.09954 -1.01072,1.95829 -0.40187,0.82103 -0.89757,1.95104 0.53286,0.0416 1.44289,0.0591 0.94533,-0.0227 2.15226,-0.1 1.84811,-0.11836 4.01876,-0.52247 2.16823,-0.44184 4.07393,-1.43492 1.90571,-0.99309 3.16205,-2.66414 1.29406,-1.67347 1.31839,-4.25027 0.12429,-0.42455 0.37623,-0.63004 0.25194,-0.20549 0.55367,-0.22481 0.33945,-0.0217 0.61796,0.18765 0.31622,0.20697 0.34279,0.62185 0.007,0.11315 -0.0256,0.191 -0.0557,2.08649 -0.78887,3.64829 -0.73314,1.5618 -1.94545,2.73771 -1.17701,1.13578 -2.71763,1.91613 -1.54061,0.78034 -3.2137,1.26621 -1.63537,0.48345 -3.32296,0.74301 -1.68758,0.25956 -3.15852,0.35377 -1.09378,0.0701 -2.03911,0.0927 -0.94775,-0.015 -1.63147,-0.047 -0.67852,1.8234 -1.43637,4.18209 -0.76027,2.32096 -1.53893,4.94607 -0.74335,2.58498 -1.43933,5.31841 -0.65826,2.73102 -1.20821,5.37935 -0.51222,2.64592 -0.84795,5.09118 -0.30042,2.40513 -0.32809,4.33833 l 0.01,0.15087 0.0507,0.79205 q 0.0362,0.56575 0.14548,1.08895 0.10925,0.5232 0.41098,0.50387 0.33945,-0.0217 1.08077,-0.86451 0.73891,-0.88049 1.67754,-2.19035 0.93622,-1.34759 1.93338,-2.9263 1.03487,-1.58112 1.92613,-3.03944 0.92897,-1.46073 1.61325,-2.60282 0.68428,-1.14209 0.92414,-1.53616 0.16926,-0.31381 0.46375,-0.44629 0.32979,-0.1726 0.66923,-0.19434 0.33945,-0.0217 0.61313,0.11222 0.27126,0.0962 0.29059,0.39797 0.0121,0.18858 -0.15718,0.50239 -0.30322,0.58749 -1.01797,1.84515 -0.71475,1.25765 -1.67419,2.83395 -0.95945,1.57629 -2.10264,3.2401 -1.10789,1.62367 -2.26799,3.02346 -1.16011,1.39979 -2.31389,2.30685 -1.11608,0.90465 -2.05899,0.96504 -1.01835,0.0652 -1.63723,-0.72832 -0.62131,-0.83124 -0.95054,-1.83268 -0.33165,-1.03916 -0.43217,-2.01737 -0.13824,-0.9758 -0.15756,-1.27753 -0.1401,-2.18756 0.17871,-4.89684 0.27868,-2.74457 0.81413,-5.61921 0.53545,-2.87463 1.2266,-5.68349 0.68873,-2.84658 1.33585,-5.1603 0.64711,-2.31372 1.14913,-3.93646 0.53731,-1.66288 0.72979,-2.2054 z"
         id="path1326"
         style="fill:#fff955;fill-opacity:1;stroke:#f8e448;stroke-width:1.074;stroke-dasharray:none;stroke-opacity:0.995413" />
      <path
         d="m 237.87617,138.8998 q -0.33168,1.07363 -0.26774,2.5462 0.0295,0.67965 0.17394,1.39214 0.18054,0.67309 0.46781,1.19022 0.32502,0.5155 0.83063,0.83401 0.50561,0.31851 1.22302,0.28736 1.32153,-0.0574 2.97311,-1.22615 1.68769,-1.20817 3.31795,-2.86779 1.63026,-1.65963 2.99129,-3.42105 1.36103,-1.76142 2.06537,-2.96472 0.24464,-0.46457 0.77325,-0.48753 0.33982,-0.0147 0.61561,0.23808 0.3119,0.21343 0.3283,0.59101 0.0131,0.30207 -0.27256,0.69277 -1.1394,1.63831 -2.67939,3.63448 -1.50222,1.99453 -3.31636,3.77563 -1.77801,1.7417 -3.80388,3.00238 -2.02752,1.22292 -4.10422,1.31309 -1.43482,0.0623 -2.515,-0.4204 -1.04406,-0.52211 -1.7253,-1.40043 -0.72064,-0.91445 -1.07353,-2.07184 -0.39065,-1.15575 -0.44476,-2.40177 -0.082,-1.88791 0.6175,-4.07456 0.66171,-2.18501 1.90455,-4.05478 1.28059,-1.87142 3.0044,-3.11899 1.75993,-1.28696 3.79888,-1.37549 0.67965,-0.0295 1.40525,0.12813 0.76336,0.156 1.38717,0.58286 0.62216,0.38911 1.02926,1.05236 0.44321,0.62386 0.48256,1.53005 0.0443,1.01948 -0.44172,2.02414 -0.5927,1.16062 -1.6155,1.99945 -0.98668,0.79943 -2.20975,1.38215 -1.18531,0.58108 -2.49209,0.97829 -1.26903,0.39557 -2.42805,0.7107 z m 0.58947,-2.10621 q 0.89636,-0.2659 2.05211,-0.65655 1.19186,-0.43005 2.22614,-1.00457 1.03428,-0.57452 1.72053,-1.32308 0.68626,-0.74856 0.64527,-1.69251 -0.0262,-0.60413 -0.45797,-0.96368 -0.43174,-0.35955 -1.07362,-0.33167 -0.37759,0.0164 -0.82577,0.14934 -0.89308,0.34142 -1.58425,0.9767 -0.65342,0.63364 -1.18536,1.45116 -0.49582,0.77812 -0.87345,1.66459 -0.37764,0.88647 -0.64363,1.73027 z"
         id="path1328"
         style="fill:#fff955;fill-opacity:1;stroke:#f8e448;stroke-width:1.074;stroke-dasharray:none;stroke-opacity:0.995413" />
      <path
         d="m 262.45994,131.62166 q -0.36457,-1.20227 -0.86574,-1.68353 -0.50117,-0.48127 -1.06796,-0.46979 -0.86908,0.0176 -1.86864,1.0585 -0.96253,1.00234 -1.80252,2.45582 -0.84075,1.41569 -1.4525,2.94015 -0.61174,1.52445 -0.74221,2.54774 -0.0973,0.7958 -0.0789,1.70267 0.013,0.64236 0.14015,1.32021 0.16416,0.6393 0.47716,1.16218 0.31301,0.52288 0.81112,0.85301 0.49811,0.33012 1.25383,0.31481 0.90686,-0.0184 1.95492,-0.53103 1.04729,-0.55044 2.08846,-1.40317 1.07895,-0.85349 2.11629,-1.89515 1.03658,-1.07944 1.92277,-2.11804 0.88543,-1.07638 1.58423,-2.03558 0.73658,-0.95996 1.13998,-1.57295 0.33012,-0.49811 0.74577,-0.50653 0.37786,-0.008 0.64772,0.25148 0.30765,0.25838 0.3153,0.63624 0.007,0.34008 -0.25148,0.64772 -0.95565,1.34242 -2.39256,3.18601 -1.39989,1.80503 -3.10436,3.50283 -1.70524,1.66001 -3.57158,2.83187 -1.86634,1.17186 -3.71785,1.20937 -1.51145,0.0306 -2.61796,-0.47618 -1.06949,-0.54536 -1.76801,-1.43844 -0.69852,-0.89309 -1.02378,-2.02055 -0.3638,-1.16447 -0.38753,-2.33584 -0.0391,-1.92709 0.67381,-4.05842 0.67429,-2.16835 1.88449,-4.00734 1.21019,-1.83899 2.84905,-3.04404 1.67587,-1.24361 3.60296,-1.28265 0.56679,-0.0115 1.28932,0.20069 0.72176,0.17438 1.33476,0.57778 0.65078,0.40264 1.08021,1.07436 0.46645,0.63318 0.48482,1.54004 0.008,0.37787 -0.40034,0.76415 -0.37097,0.34773 -0.78661,0.35615 -0.26451,0.005 -0.49658,-0.25455 z"
         id="path1330"
         style="fill:#fff955;fill-opacity:1;stroke:#f8e448;stroke-width:1.074;stroke-dasharray:none;stroke-opacity:0.995413" />
      <path
         d="m 278.39184,131.65171 q 0.64441,-0.3365 1.24911,-0.33307 0.60469,0.003 1.0187,0.30813 0.45202,0.26713 0.60019,0.79709 0.18596,0.53018 -0.0449,1.24696 -0.0769,0.22633 -0.38393,1.05607 -0.30706,0.82973 -0.72942,1.99897 -0.38436,1.13165 -0.8836,2.52721 -0.46124,1.35798 -0.84688,2.7164 -0.38543,1.32062 -0.65663,2.4907 -0.2334,1.17031 -0.23769,1.92617 -0.006,0.98263 0.48574,0.98541 0.34014,0.002 1.21431,-0.86239 0.91197,-0.8641 2.09106,-2.18022 1.1793,-1.35391 2.47327,-2.93394 1.29397,-1.58003 2.43591,-3.00974 1.14215,-1.4675 1.97981,-2.55879 0.83767,-1.09129 1.10415,-1.42993 0.15181,-0.11252 0.49281,-0.26177 0.34121,-0.18703 0.68156,-0.2229 0.34057,-0.0737 0.60469,0.003 0.26413,0.0771 0.26198,0.45502 -0.002,0.30234 -0.23061,0.67899 -0.30556,0.56518 -1.25768,1.84479 -0.95211,1.27962 -2.28387,2.85943 -1.29397,1.58003 -2.81534,3.27215 -1.52137,1.69212 -2.92765,3.08254 -1.40627,1.39042 -2.58301,2.29082 -1.17673,0.90039 -1.81921,0.89675 -0.90704,-0.005 -1.50959,-0.3865 -0.60276,-0.34357 -1.01484,-0.98841 -0.37429,-0.64463 -0.55854,-1.47715 -0.14625,-0.8701 -0.14046,-1.89052 0.006,-0.98262 0.12473,-2.00239 0.15696,-1.01956 0.38994,-2.11428 -0.72386,1.01634 -1.56088,1.99425 -0.79923,0.97813 -1.67297,1.76686 -0.83574,0.75115 -1.70777,1.23753 -0.83402,0.4488 -1.62768,0.4443 -0.98262,-0.006 -1.80893,-0.91732 -0.86388,-0.94976 -0.8536,-2.76383 0.008,-1.47393 0.5471,-3.17163 0.53875,-1.69769 1.45457,-3.24207 0.87803,-1.54459 1.98089,-2.74776 1.14065,-1.20296 2.27724,-1.68784 2.00775,-0.82009 3.28822,-0.0191 1.31826,0.80116 1.83622,2.7694 0.68735,-1.24332 0.99248,-1.73291 0.34293,-0.48939 0.57097,-0.71486 z m -2.9255,2.70461 q -0.56176,-0.91025 -1.27983,-0.91432 -0.68028,-0.004 -1.36398,0.59698 -0.68349,0.56304 -1.36913,1.50401 -0.64784,0.94119 -1.22138,2.10956 -0.57354,1.16838 -0.99591,2.33761 -0.42237,1.16923 -0.69292,2.22594 -0.23276,1.05692 -0.23661,1.7372 -0.002,0.41573 0.26219,0.41723 0.30235,0.002 0.90982,-0.48617 0.64549,-0.52546 1.36784,-1.27726 0.72236,-0.75179 1.48337,-1.65454 0.7988,-0.90254 1.44578,-1.69255 0.64699,-0.79002 1.06592,-1.35456 0.45695,-0.60212 0.53318,-0.71507 0.15246,-0.2259 0.23019,-0.6034 0.0777,-0.37751 0.0801,-0.79323 0.0404,-0.45331 -0.0331,-0.83167 -0.0357,-0.37814 -0.18554,-0.60576 z"
         id="path1332"
         style="fill:#fff955;fill-opacity:1;stroke:#f8e448;stroke-width:1.074;stroke-dasharray:none;stroke-opacity:0.995413" />
      <path
         d="m 326.60135,117.23193 q -0.45834,1.78791 -1.13249,3.97826 -0.63643,2.19283 -1.39344,4.49136 -0.71682,2.2633 -1.5041,4.44622 -0.7471,2.14769 -1.42923,3.88301 1.02209,-1.14486 2.42076,-2.83311 1.39867,-1.68825 3.00077,-3.59039 1.60209,-1.90214 3.28457,-3.87475 1.72267,-2.00784 3.35257,-3.75665 1.6299,-1.74882 3.12188,-3.12794 1.5297,-1.37664 2.75082,-2.0918 1.33425,-0.70772 2.35249,-0.64083 1.13137,0.0743 1.70559,1.13468 0.61441,1.02512 0.4831,3.02389 -0.1214,1.84791 -0.88584,4.25958 -0.80215,2.4092 -1.82755,5.33398 -1.02292,2.88707 -2.17137,5.95527 -1.11073,3.07068 -2.26414,6.2143 -1.15092,3.10591 -2.24927,5.98803 -1.05816,2.84688 -1.97593,5.28635 -0.92024,2.47719 -1.60485,4.25023 -0.36612,0.9607 -0.86078,1.57208 -0.45944,0.65158 -1.01219,0.99402 -0.51503,0.34491 -1.09063,0.4586 -0.53789,0.11616 -1.02815,0.084 -1.01824,-0.0669 -1.71,-0.4911 -0.69424,-0.38648 -0.6491,-0.49714 0.81454,-2.59776 1.98034,-5.92995 1.20102,-3.29199 2.53996,-6.95368 1.34142,-3.6994 2.80588,-7.54222 1.46446,-3.84282 2.87883,-7.49956 1.45455,-3.69197 2.76871,-6.97653 1.31664,-3.32228 2.35746,-5.90517 -1.76093,1.4372 -3.47864,3.36962 -1.71524,1.8947 -3.40515,3.98045 -1.65219,2.08822 -3.30935,4.25187 -1.65467,2.12594 -3.29696,4.06331 -1.60209,1.90214 -3.18189,3.46487 -1.5798,1.56273 -3.1552,2.48186 -1.22359,0.75287 -2.09098,0.69589 -1.73477,-0.11397 -1.49445,-3.77208 0.0941,-1.43307 0.47705,-3.22593 0.38291,-1.79286 0.92163,-3.65123 0.54119,-1.89609 1.15533,-3.7495 0.61414,-1.85342 1.17074,-3.40762 0.5968,-1.58943 1.01302,-2.73622 0.4564,-1.18202 0.63946,-1.66237 -2.24459,3.03406 -4.24005,6.31174 -1.95776,3.28016 -3.88028,6.60051 -1.92251,3.32035 -3.91798,6.59803 -1.99547,3.27768 -4.27777,6.30927 -0.20838,0.28931 -0.82169,0.40052 -0.57312,0.076 -1.32737,0.0264 -0.64111,-0.0421 -1.31251,-0.19985 -0.67139,-0.15773 -1.22469,-0.38346 -0.55082,-0.26343 -0.90565,-0.62762 -0.31711,-0.36171 -0.28738,-0.81426 0.005,-0.0754 0.0952,-0.29675 2.23634,-6.36763 5.24234,-12.34381 3.04619,-6.01143 6.0398,-11.79905 0.12801,-0.21885 0.56267,-0.49329 0.47237,-0.27197 1.0554,-0.4988 0.62074,-0.22435 1.27176,-0.33308 0.6535,-0.14644 1.18148,-0.11176 0.56568,0.0372 0.92794,0.28822 0.36226,0.25105 0.32262,0.85445 -0.0223,0.33941 -0.24802,0.89271 -1.02843,2.39433 -2.20275,4.70332 -1.17184,2.27129 -2.38388,4.5778 -1.21203,2.30652 -2.4315,4.72617 -1.18176,2.42214 -2.22505,5.04274 1.99794,-3.31539 3.92046,-6.63574 1.96271,-3.35559 3.99837,-6.6685 0.89106,-1.45647 1.99299,-3.23997 1.14211,-1.81873 2.41773,-3.36357 1.2781,-1.58254 2.66989,-2.58949 1.39426,-1.04467 2.82734,-0.95052 1.09366,0.0718 1.71798,0.94612 0.66451,0.83904 0.55797,2.46067 -0.0124,0.18857 -0.0272,0.41484 -0.0149,0.22628 -0.0674,0.45007 z"
         id="path1334"
         style="fill:#fff955;fill-opacity:1;stroke:#f8e448;stroke-width:1.074;stroke-dasharray:none;stroke-opacity:0.995413" />
      <path
         d="m 354.51722,136.14553 q 0.68118,-0.3027 1.39464,-0.22132 0.63836,0.0728 1.08368,0.50399 0.44961,0.39363 0.36395,1.14464 -0.0514,0.4506 -0.25299,0.88407 -0.1008,0.21674 -0.49543,1.00858 -0.39462,0.79185 -0.94045,1.9088 -0.50399,1.08368 -1.15061,2.41736 -0.60479,1.30042 -1.13448,2.6094 -0.5254,1.27144 -0.92102,2.40552 -0.35808,1.13836 -0.44374,1.88937 -0.11135,0.9763 0.3768,1.03198 0.33796,0.0385 1.30012,-0.7266 0.99972,-0.76087 2.31368,-1.94236 1.31824,-1.21904 2.77484,-2.65054 1.45659,-1.43149 2.74585,-2.72992 1.29355,-1.33598 2.24386,-2.33071 0.95031,-0.99474 1.25171,-1.30271 0.7026,-0.49045 1.45361,-0.40479 0.26285,0.03 0.43775,0.16405 0.1749,0.13406 0.14064,0.43447 -0.0343,0.3004 -0.30239,0.65021 -0.36465,0.52899 -1.44903,1.69863 -1.08438,1.16963 -2.57852,2.59685 -1.45659,1.43149 -3.15134,2.94994 -1.69474,1.51845 -3.24257,2.74934 -1.54783,1.2309 -2.81468,1.99934 -1.26685,0.76843 -1.90521,0.69563 -0.90121,-0.10279 -1.45918,-0.54682 -0.56226,-0.40648 -0.90251,-1.09195 -0.30269,-0.68119 -0.39622,-1.52871 -0.0517,-0.88079 0.0639,-1.89465 0.11136,-0.97631 0.33965,-1.97732 0.26584,-0.99672 0.61535,-2.05999 -0.8291,0.93249 -1.76656,1.81457 -0.89991,0.88637 -1.85351,1.57642 -0.91177,0.65678 -1.83111,1.04643 -0.8775,0.35638 -1.66605,0.26644 -0.97631,-0.11136 -1.69963,-1.10679 -0.75659,-1.03726 -0.55101,-2.83968 0.16704,-1.46446 0.88547,-3.09427 0.71844,-1.6298 1.79525,-3.06658 1.03925,-1.44105 2.26527,-2.51846 1.26356,-1.07312 2.44575,-1.43279 0.98587,-0.30598 1.88708,-0.20319 1.23916,0.14133 1.93349,1.05738 0.73617,0.88278 0.9779,2.43191 0.81725,-1.16207 1.17333,-1.61596 0.39363,-0.44961 0.64463,-0.64921 z m -3.19975,2.37384 q -0.46046,-0.96545 -1.17392,-1.04683 -0.67591,-0.0771 -1.42034,0.44662 -0.74015,0.48616 -1.52313,1.34783 -0.74543,0.86595 -1.44145,1.96576 -0.69603,1.09982 -1.24185,2.21677 -0.54582,1.11695 -0.9286,2.13838 -0.34522,1.02571 -0.42231,1.70162 -0.0471,0.41305 0.21574,0.44303 0.3004,0.0343 0.95688,-0.38536 0.69832,-0.4529 1.49743,-1.12253 0.79912,-0.66963 1.65291,-1.48518 0.89135,-0.81127 1.61965,-1.52702 0.7283,-0.71574 1.20559,-1.23189 0.51913,-0.54941 0.60708,-0.65349 0.18018,-0.24572 0.30668,-0.68776 0.1265,-0.44204 0.18217,-0.9302 0.0942,-0.8261 -0.0925,-1.18975 z m -0.47421,-4.84698 q -0.12122,0.0623 -0.27142,0.0451 -0.11265,-0.0129 -0.18775,-0.0214 -0.67591,-0.0771 -0.60738,-0.6779 0.0471,-0.41305 1.04683,-1.17392 0.99971,-0.76087 2.38778,-1.59156 0.81953,-0.51514 1.71417,-1.02172 0.93646,-0.53985 1.57681,-1.15152 0.251,-0.1996 0.44304,-0.21574 0.19203,-0.0161 0.30468,-0.003 0.48816,0.0557 0.7039,0.49871 0.21574,0.44303 0.15578,0.96874 -0.0428,0.3755 -0.29055,0.87979 -0.21016,0.50857 -0.96316,1.10739 -0.74871,0.56126 -2.19046,1.19563 -1.39992,0.60111 -3.82227,1.16168 z"
         id="path1336"
         style="fill:#fff955;fill-opacity:1;stroke:#f8e448;stroke-width:1.074;stroke-dasharray:none;stroke-opacity:0.995413" />
      <path
         d="m 372.53878,145.07988 q -0.82319,0.95132 -1.75862,1.88659 -0.89266,0.9032 -1.87083,1.6033 -0.9354,0.66802 -1.87078,1.06881 -0.93004,0.36337 -1.75314,0.24572 -1.04757,-0.14975 -1.75834,-1.32033 -0.74283,-1.21334 -0.47009,-3.12143 0.20323,-1.42171 0.91956,-2.96097 0.72169,-1.57667 1.71595,-2.92349 0.9996,-1.38423 2.1702,-2.36224 1.17595,-1.01543 2.32512,-1.3093 0.51846,-0.15496 0.97812,-0.16561 0.50242,-0.0427 0.91397,0.0161 1.9455,0.2781 2.67755,2.63524 l 0.4491,-1.53928 q 0.13365,-0.40085 0.4597,-0.54514 0.32605,-0.14428 0.7376,-0.0855 0.37413,0.0535 0.72687,0.25661 0.39551,0.17107 0.70549,0.40627 0.30998,0.2352 0.45427,0.56125 0.18704,0.29398 0.14961,0.55587 -0.93044,5.17374 -2.60912,9.97328 -1.67334,4.76212 -3.66201,9.32645 2.35166,0.90883 4.48414,2.28263 2.1699,1.37915 3.52197,3.40496 0.22446,0.29933 0.18168,0.59864 -0.0535,0.37414 -0.39022,0.59325 -0.29933,0.22446 -0.67347,0.17098 -0.37413,-0.0535 -0.66272,-0.43834 -0.57184,-0.80712 -1.38419,-1.53408 -0.81236,-0.72697 -1.753,-1.35774 -0.94599,-0.59336 -1.9775,-1.12259 -0.99945,-0.48646 -2.00959,-0.8981 -2.427,5.22706 -5.15324,9.60961 -2.68882,4.3879 -5.60737,7.44491 -2.92389,3.09442 -6.04006,4.59607 -3.15894,1.53371 -6.45133,1.06308 -2.13257,-0.30483 -3.63974,-1.24565 -1.54458,-0.94617 -2.45309,-2.33591 -0.95127,-1.35767 -1.27716,-3.08408 -0.32589,-1.72641 -0.0585,-3.59709 0.28344,-1.98292 1.26172,-4.01922 0.93551,-2.00424 2.53913,-3.87481 1.59826,-1.83315 3.88599,-3.41503 2.28238,-1.54447 5.21679,-2.57578 2.93441,-1.03131 6.54221,-1.43188 3.60781,-0.40056 7.85158,0.0915 1.34713,-2.74714 2.35754,-5.54241 1.01041,-2.79527 2.05824,-5.5852 z m -5.23903,12.88065 q -3.93912,-0.48671 -7.19951,-0.11284 -3.2978,0.36852 -5.91686,1.33037 -2.66182,0.99392 -4.66626,2.46359 -2.04185,1.46432 -3.437,3.21197 -1.43257,1.7423 -2.23445,3.61293 -0.8393,1.86528 -1.09066,3.62372 -0.21391,1.49654 -0.0216,2.82208 0.15489,1.32019 0.73205,2.35714 0.57181,1.07436 1.5071,1.74254 0.92994,0.7056 2.23942,0.89278 2.24481,0.32088 4.33473,-0.67843 2.08457,-0.9619 4.0249,-2.78433 1.89757,-1.79037 3.61882,-4.21679 1.71589,-2.389 3.18594,-4.92768 1.50746,-2.53334 2.73698,-4.99187 1.22952,-2.45852 2.18641,-4.34518 z m 5.17011,-19.60982 q -0.67345,-0.0963 -1.43246,0.40609 -0.75366,0.46494 -1.48598,1.31471 -0.68955,0.8177 -1.37913,1.90265 -0.64681,1.05288 -1.18673,2.15922 -0.53993,1.10634 -0.91415,2.12183 -0.33681,1.02084 -0.43842,1.73169 -0.0588,0.41155 0.20306,0.44899 0.29931,0.0428 0.93004,-0.36337 0.67349,-0.43823 1.45389,-1.09023 0.7804,-0.65201 1.65702,-1.44297 0.87663,-0.79097 1.58755,-1.49108 0.71092,-0.70012 1.20269,-1.2025 0.53453,-0.53444 0.6254,-0.63598 0.28866,-0.41687 0.40631,-1.23997 0.12301,-0.86051 -0.14417,-1.66226 -0.22441,-0.83382 -1.08492,-0.95682 z"
         id="path1338"
         style="fill:#fff955;fill-opacity:1;stroke:#f8e448;stroke-width:1.074;stroke-dasharray:none;stroke-opacity:0.995413" />
      <path
         d="m 382.38025,143.00631 q 0.58378,-0.28635 1.40406,-0.15042 0.63385,0.10504 1.06295,0.52093 0.4291,0.41589 0.29934,1.19889 -0.0741,0.44742 -0.29743,0.87013 -0.16747,0.31703 -0.79408,1.32416 -0.62661,1.00713 -1.33993,2.30636 -0.66986,1.26812 -1.27133,2.58589 -0.56418,1.32395 -0.7063,2.18151 -0.16064,0.96942 0.36135,1.05592 0.33557,0.0556 1.36017,-0.57909 1.06189,-0.62852 2.45274,-1.62393 1.39085,-0.99541 2.93681,-2.23328 1.54596,-1.23786 2.91806,-2.35131 1.3721,-1.11344 2.35921,-1.98421 1.02439,-0.86459 1.30371,-1.16308 0.26696,-0.22393 0.62724,-0.31746 0.39757,-0.0874 0.73314,-0.0317 0.29828,0.0494 0.45999,0.22946 0.16789,0.14275 0.11846,0.44103 -0.0494,0.29829 -0.25418,0.60914 -0.36603,0.5906 -1.53317,1.62308 -1.12986,1.03866 -2.66964,2.23924 -1.53978,1.20058 -3.32181,2.47595 -1.77585,1.23808 -3.39659,2.2337 -1.62074,0.99562 -2.90634,1.58707 -1.2856,0.59145 -1.88216,0.49259 -0.89485,-0.14829 -1.43581,-0.58272 -0.57824,-0.44061 -0.81494,-1.09278 -0.274,-0.65836 -0.29338,-1.46606 -0.0505,-0.85117 0.10397,-1.78331 0.22244,-1.34227 0.75552,-2.70968 0.50197,-1.41087 1.15947,-2.60443 0.65751,-1.19355 1.34015,-2.07647 0.64536,-0.88909 1.16075,-1.22508 z m 3.38487,-1.46946 q -0.55907,0.13721 -0.93192,0.0754 -0.67114,-0.11122 -0.95749,-0.695 -0.28635,-0.58378 -0.18131,-1.21763 0.14829,-0.89485 0.92447,-1.41748 0.78235,-0.55992 1.49077,-0.44252 0.74571,0.12357 1.17502,0.76936 0.43549,0.60849 0.3181,1.31691 -0.0865,0.522 -0.53968,0.94492 -0.4159,0.4291 -1.29796,0.66602 z"
         id="path1340"
         style="fill:#fff955;fill-opacity:1;stroke:#f8e448;stroke-width:1.074;stroke-dasharray:none;stroke-opacity:0.995413" />
      <path
         d="m 405.74642,143.83862 q -0.11091,-1.25141 -0.50304,-1.82503 -0.39212,-0.57361 -0.94927,-0.67831 -0.8543,-0.16055 -2.04565,0.65385 -1.14722,0.78424 -2.26678,2.03515 -1.11258,1.21376 -2.02324,2.58084 -0.91065,1.36708 -1.2477,2.34203 -0.25802,0.75907 -0.42555,1.65052 -0.11867,0.63144 -0.13288,1.32097 0.0299,0.65936 0.22933,1.23521 0.19942,0.57586 0.61946,1.00089 0.42005,0.42504 1.16292,0.56465 0.89144,0.16753 2.02221,-0.11989 1.13774,-0.32455 2.33133,-0.94626 1.23074,-0.61473 2.45923,-1.42215 1.23547,-0.84457 2.31539,-1.67992 1.08689,-0.87249 1.96713,-1.66845 0.91738,-0.78898 1.43765,-1.30649 0.42504,-0.42005 0.83362,-0.34326 0.37143,0.0698 0.58257,0.37867 0.24829,0.31585 0.17849,0.68728 -0.0628,0.3343 -0.37868,0.58258 -1.21004,1.11854 -2.9937,2.62919 -1.73954,1.48049 -3.75528,2.79371 -2.00876,1.27608 -4.07535,2.04136 -2.06659,0.76529 -3.88663,0.42325 -1.48574,-0.27922 -2.46518,-1.00166 -0.93531,-0.7526 -1.43637,-1.7697 -0.50105,-1.01709 -0.58879,-2.18724 -0.1179,-1.21427 0.0985,-2.36573 0.356,-1.89432 1.48978,-3.83475 1.10361,-1.98456 2.66441,-3.53709 1.5608,-1.55254 3.41151,-2.39685 1.89483,-0.87448 3.78915,-0.51848 0.55716,0.10471 1.221,0.4602 0.67083,0.31834 1.18834,0.83861 0.55466,0.52724 0.83759,1.27261 0.32705,0.71521 0.15952,1.60665 -0.0698,0.37144 -0.54818,0.66609 -0.43426,0.26449 -0.84284,0.1877 -0.26001,-0.0489 -0.43401,-0.35075 z"
         id="path1342"
         style="fill:#fff955;fill-opacity:1;stroke:#f8e448;stroke-width:1.074;stroke-dasharray:none;stroke-opacity:0.995413" />
      <path
         d="m 421.37103,147.15803 q 0.70013,-0.19577 1.291,-0.0672 0.59088,0.12856 0.93283,0.51238 0.38691,0.35493 0.42214,0.90409 0.0722,0.55719 -0.30209,1.21064 -0.12207,0.20551 -0.59427,0.95369 -0.47221,0.74817 -1.12753,1.80461 -0.61034,1.02755 -1.38773,2.28949 -0.73242,1.23306 -1.39097,2.48218 -0.65053,1.21219 -1.15812,2.30077 -0.47067,1.09661 -0.63137,1.83521 -0.20891,0.96018 0.27118,1.06463 0.33237,0.0723 1.36656,-0.59226 1.07112,-0.65655 2.49717,-1.70001 1.43408,-1.08038 3.02717,-2.35825 1.59308,-1.27786 3.00631,-2.44014 1.42125,-1.19921 2.46673,-2.0934 1.04547,-0.8942 1.37629,-1.17032 0.17182,-0.0787 0.53633,-0.15405 0.37255,-0.11234 0.71295,-0.0769 0.34844,-0.002 0.59088,0.12856 0.24243,0.1301 0.16208,0.4994 -0.0643,0.29544 -0.3662,0.61653 -0.41597,0.48966 -1.6124,1.5444 -1.19644,1.05474 -2.82645,2.32456 -1.59309,1.27787 -3.43185,2.61831 -1.83877,1.34044 -3.50247,2.40954 -1.6637,1.06911 -3.00136,1.70634 -1.33766,0.63723 -1.96547,0.50064 -0.88632,-0.19285 -1.39684,-0.6907 -0.51856,-0.46093 -0.7882,-1.17712 -0.2327,-0.70816 -0.24058,-1.56079 0.0371,-0.88153 0.25403,-1.87863 0.20891,-0.96018 0.53665,-1.93317 0.36466,-0.96497 0.81926,-1.98772 -0.91861,0.84444 -1.93998,1.62784 -0.98444,0.79144 -2.00256,1.38216 -0.97315,0.56183 -1.92699,0.85711 -0.90888,0.26639 -1.68441,0.0976 -0.96017,-0.20891 -1.57979,-1.272 -0.64851,-1.10805 -0.26282,-2.88068 0.31336,-1.44026 1.19195,-2.98961 0.8786,-1.54935 2.09435,-2.87063 1.17882,-1.32932 2.5069,-2.27806 1.36502,-0.9407 2.57737,-1.17974 2.13404,-0.3866 3.22092,0.66212 1.12381,1.05675 1.22301,3.08959 0.92989,-1.07405 1.32978,-1.48986 0.43683,-0.40777 0.70661,-0.58114 z m -3.42211,2.04025 q -0.36111,-1.00684 -1.06277,-1.15951 -0.66474,-0.14463 -1.45804,0.30162 -0.78526,0.40932 -1.65087,1.18793 -0.82868,0.78665 -1.63171,1.81095 -0.80304,1.0243 -1.45835,2.08074 -0.65531,1.05644 -1.1388,2.03423 -0.44656,0.98582 -0.59119,1.65056 -0.0884,0.40622 0.17012,0.46247 0.29544,0.0643 0.99077,-0.28725 0.7403,-0.38042 1.60267,-0.96635 0.86236,-0.58593 1.7938,-1.31155 0.96836,-0.71758 1.76491,-1.35651 0.79654,-0.63893 1.32329,-1.10449 0.57172,-0.49446 0.66968,-0.58918 0.19593,-0.18943 0.35014,-0.54266 0.15421,-0.35323 0.2426,-0.75946 0.13335,-0.43512 0.13984,-0.82049 0.0434,-0.37733 -0.0561,-0.63105 z"
         id="path1344"
         style="fill:#fff955;fill-opacity:1;stroke:#f8e448;stroke-width:1.074;stroke-dasharray:none;stroke-opacity:0.995413" />
    </g>
    <g
       aria-label="Biblioteca Mágica "
       transform="matrix(1.3799421,0,0,1.4528877,-113.51467,-86.073575)"
       id="text1254-0"
       style="font-size:37.7938px;font-family:magic;-inkscape-font-specification:'magic, Normal';fill:#fff955;fill-opacity:1;stroke:#f8e448;stroke-width:1.074;stroke-dasharray:none;stroke-opacity:0.995413">
      <path
         d="m 110.42061,139.55783 q -0.084,0.13658 -0.23106,0.17162 -0.33088,0.0789 -0.74937,-0.20992 -0.42726,-0.32555 -0.52364,-0.72996 -0.035,-0.14705 0.0594,-0.40269 0.95551,-1.85952 2.45733,-3.38301 1.52982,-1.56902 3.33985,-2.77745 1.83802,-1.25395 3.88272,-2.12978 2.0447,-0.87584 4.10349,-1.3665 2.80284,-0.62915 4.96505,-0.52283 2.16222,0.10632 3.7223,0.78353 1.55132,0.64043 2.48298,1.77823 0.95966,1.09226 1.30137,2.52606 0.368,1.54409 0.0182,3.33695 -0.34975,1.79286 -1.38755,3.63314 -1.04656,1.80352 -2.80745,3.54417 -1.76088,1.74065 -4.2239,3.14355 1.91174,-0.45562 3.43144,-0.27387 1.55647,0.17298 2.73138,0.86427 1.16615,0.65453 1.93323,1.75384 0.75832,1.06255 1.07375,2.38606 0.41181,1.72791 0.0779,3.75012 -0.34272,1.98544 -1.52929,4.01659 -1.48583,2.56869 -3.98904,4.292 -2.46645,1.71454 -5.40758,2.41549 -2.61025,0.6221 -5.31174,0.37233 -2.66472,-0.25852 -5.01626,-1.48529 -2.31479,-1.23553 -4.13257,-3.48311 -1.78979,-2.29311 -2.59589,-5.6754 -0.0701,-0.29412 -0.14895,-0.62499 -0.0789,-0.33088 -0.0667,-0.60575 0.049,-0.28364 0.19773,-0.47451 0.14001,-0.22763 0.47089,-0.30648 0.4044,-0.0964 0.71432,0.0629 0.34669,0.15049 0.44307,0.55489 0.0701,0.29412 0.10343,0.59699 0.0613,0.25735 0.13142,0.55146 0.67467,2.83084 2.10197,4.74411 1.41853,1.87651 3.25881,2.9143 1.84028,1.0378 3.91849,1.2807 2.11498,0.23414 4.137,-0.24777 2.72055,-0.64838 4.94013,-2.42064 2.24758,-1.81779 3.33244,-4.60175 0.48118,-1.24139 0.58425,-2.27612 0.10307,-1.03472 -0.0985,-1.8803 -0.26285,-1.10292 -1.0246,-1.85383 -0.76175,-0.75091 -1.86657,-1.14809 -1.10482,-0.39718 -2.47918,-0.45815 -1.37436,-0.061 -2.90798,0.18797 -1.68067,0.28399 -2.43004,0.0741 -0.72137,-0.25546 -0.84404,-0.77015 -0.0789,-0.33088 0.0629,-0.71433 0.14173,-0.38345 0.43927,-0.76518 0.32555,-0.42726 0.75091,-0.76175 0.45337,-0.38001 0.93302,-0.64974 2.21271,-1.14899 3.93511,-2.72505 1.72241,-1.57607 2.84078,-3.24129 1.11837,-1.66523 1.58547,-3.29179 0.46709,-1.62656 0.15166,-2.95007 -0.21904,-0.9191 -0.85298,-1.62277 -0.64269,-0.74043 -1.78427,-1.12885 -1.10482,-0.39718 -2.69977,-0.40558 -1.59495,-0.008 -3.6905,0.49102 -1.69115,0.40305 -3.41374,1.16326 -1.68582,0.75145 -3.26478,1.78825 -1.54219,1.02804 -2.89524,2.36067 -1.31628,1.32387 -2.24036,2.82623 z m 8.37506,21.12112 q -0.0524,0.59527 -0.43223,0.95776 -0.37984,0.3625 -0.89453,0.48516 -2.20585,0.52572 -3.02947,-2.93011 -0.27162,-1.13969 -0.32094,-2.48776 -0.0581,-1.38485 0.003,-2.75921 0.061,-1.37436 0.18499,-2.64719 0.15203,-1.31836 0.27262,-2.27956 0.28843,-2.05021 0.45608,-3.95508 0.19565,-1.95039 0.17949,-3.81145 -0.0545,-0.88062 0.42861,-1.46198 0.48309,-0.58136 1.10808,-0.73031 0.62499,-0.14896 1.24483,0.16955 0.61984,0.3185 0.82136,1.16407 l 0.0368,-0.009 q 0.14705,-0.0351 0.21715,0.25907 0.1139,0.47793 0.0354,1.77876 -0.0785,1.30084 -0.24443,3.04989 -0.1747,1.71229 -0.35283,3.73621 -0.17813,2.02392 -0.30026,3.95679 -0.12213,1.93287 -0.10425,3.63811 0.0179,1.70524 0.28074,2.80816 0.0789,0.33088 0.18572,0.61623 0.10686,0.28535 0.2242,0.45165 z"
         id="path1314-0"
         style="fill:#fff955;fill-opacity:1;stroke:#f8e448;stroke-width:1.074;stroke-dasharray:none;stroke-opacity:0.995413" />
      <path
         d="m 140.39588,147.32532 q 0.45192,-0.46751 1.26963,-0.61809 0.63187,-0.11636 1.17667,0.12918 0.54479,0.24554 0.68853,1.02609 0.0821,0.44602 0.0156,0.91943 -0.0499,0.35505 -0.29744,1.51508 -0.24753,1.16003 -0.47748,2.62426 -0.19962,1.42021 -0.31806,2.86391 -0.0813,1.43685 0.0762,2.29173 0.17796,0.96639 0.69832,0.87057 0.33452,-0.0616 1.08284,-1.00642 0.78548,-0.95166 1.75586,-2.36009 0.97038,-1.40843 2.00435,-3.09757 1.03397,-1.68915 1.94664,-3.20224 0.91268,-1.51309 1.54559,-2.66723 0.67008,-1.16099 0.83149,-1.53657 0.1751,-0.30125 0.48224,-0.51153 0.34431,-0.21712 0.67883,-0.27872 0.29735,-0.0548 0.51058,0.0597 0.20637,0.0773 0.26113,0.37464 0.0548,0.29735 -0.0323,0.65925 -0.14382,0.67978 -0.89119,2.04714 -0.71019,1.36052 -1.75101,3.0125 -1.04081,1.65197 -2.28411,3.45652 -1.25014,1.76738 -2.43668,3.25405 -1.18655,1.48666 -2.19505,2.47939 -1.00849,0.99273 -1.6032,1.10224 -0.89205,0.16427 -1.54835,-0.0607 -0.69347,-0.21817 -1.13751,-0.75127 -0.4812,-0.52625 -0.77361,-1.27942 -0.33642,-0.78349 -0.50754,-1.71271 -0.2464,-1.33808 -0.20914,-2.80525 -0.007,-1.4975 0.20655,-2.84338 0.21331,-1.34587 0.55572,-2.40809 0.30523,-1.05537 0.67597,-1.54636 z m 2.68508,-2.5312 q -0.4793,0.31884 -0.85098,0.38728 -0.66904,0.1232 -1.13656,-0.32871 -0.46751,-0.45192 -0.58387,-1.08379 -0.16427,-0.89206 0.38842,-1.64713 0.54583,-0.79224 1.25204,-0.92229 0.74338,-0.13689 1.36641,0.32482 0.61619,0.42454 0.74624,1.13075 0.0958,0.52036 -0.18689,1.072 -0.24554,0.5448 -0.99481,1.06707 z"
         id="path1316-7"
         style="fill:#fff955;fill-opacity:1;stroke:#f8e448;stroke-width:1.074;stroke-dasharray:none;stroke-opacity:0.995413" />
      <path
         d="m 153.48163,153.39834 q -0.15192,-0.47331 -0.22921,-0.95851 -0.12055,-0.51659 -0.20972,-1.07644 -0.36263,-2.27672 -0.32923,-5.19058 -0.01,-2.94523 0.35515,-6.1798 0.36502,-3.23456 1.08544,-6.64055 0.71448,-3.4433 1.76321,-6.71023 1.08605,-3.27287 2.44955,-6.2455 1.36349,-2.97263 3.05199,-5.34643 1.68255,-2.41112 3.64518,-4.02491 1.99401,-1.65706 4.27239,-2.24958 0.2867,-0.1222 0.58528,-0.16976 0.29859,-0.0476 0.59718,-0.0951 1.97813,-0.31507 3.57213,0.0816 1.63132,0.39076 2.81739,1.34995 1.18013,0.92187 1.90907,2.37484 0.76031,1.40971 1.03377,3.12658 0.32102,2.01546 -0.0314,4.36781 -0.32108,2.30908 -1.39457,4.69974 -1.07944,2.35333 -2.89774,4.63299 -1.8183,2.27967 -4.44846,4.26767 -2.63611,1.95069 -6.11379,3.42309 -3.44037,1.46646 -7.75799,2.2307 -0.43139,2.09703 -0.73133,4.05831 -0.29993,1.96128 -0.46246,3.82414 -0.0889,1.12399 -0.0971,2.27342 -0.0142,1.1121 -0.0284,2.2242 l 1.63898,-4.12635 q 0.41718,-0.98493 0.97176,-2.06829 0.58595,-1.12662 1.31955,-2.04714 0.72765,-0.95784 1.61483,-1.63493 0.88718,-0.67709 1.93224,-0.84355 0.93308,-0.14862 1.60753,0.24147 0.71178,0.38414 1.16659,1.0771 0.49213,0.68702 0.78409,1.559 0.29197,0.87199 0.42276,1.6931 0.0476,0.29859 0.0578,0.60312 0.0416,0.26126 0.0832,0.52252 0.84985,-0.67114 1.36975,-1.25146 0.51394,-0.61765 0.91592,-1.21745 0.4393,-0.60576 0.84127,-1.20557 0.40198,-0.5998 0.99057,-1.22934 0.35111,-0.43862 0.79899,-0.50996 0.70915,-0.11295 0.81615,0.55887 0.0594,0.37323 -0.17374,0.83135 -1.15672,1.86812 -2.50434,3.49877 -1.3103,1.6247 -3.14577,2.83553 -0.1982,1.63892 -0.71447,3.44331 -0.52222,1.76706 -1.42791,3.28905 -0.90569,1.52198 -2.22457,2.61226 -1.31888,1.09029 -3.07307,1.36969 -1.60491,0.25563 -2.56869,-0.50935 -0.96379,-0.76497 -1.15997,-1.99664 -0.20212,-1.269 0.40927,-2.47621 0.64277,-1.25049 1.70039,-2.29916 1.05167,-1.08599 2.36889,-1.94639 1.31128,-0.89772 2.47756,-1.50445 0.0347,-0.50304 0.0235,-1.53455 0.0202,-1.07478 -0.12845,-2.00786 -0.10701,-0.67182 -0.32764,-1.09592 -0.18331,-0.43005 -0.59386,-0.36466 -0.37324,0.0594 -0.7871,0.58461 -0.41981,0.48784 -0.8099,1.1623 -0.35871,0.63119 -0.67415,1.29375 -0.27812,0.65662 -0.44855,1.0282 -0.39174,0.90434 -0.91065,2.21164 -0.48754,1.26403 -1.05566,2.50262 -0.57407,1.20128 -1.19569,2.10396 -0.62163,0.90269 -1.29345,1.00969 -0.29859,0.0476 -0.52087,-0.14666 -0.22229,-0.19421 -0.38776,-0.51229 -0.2028,-0.31213 -0.34284,-0.7108 -0.14598,-0.43599 -0.2487,-0.8406 z m 4.10612,-16.26825 q 4.09368,-0.72857 7.27278,-2.15342 3.1791,-1.42484 5.56583,-3.25926 2.38079,-1.87175 3.98704,-4.0411 1.64357,-2.17529 2.56017,-4.34961 0.94798,-2.21758 1.22413,-4.32816 0.27616,-2.11057 -0.009,-3.90209 -0.20807,-1.30632 -0.71638,-2.33519 -0.47693,-1.07214 -1.23626,-1.75487 -0.72796,-0.726 -1.73238,-1.02526 -0.9671,-0.30521 -2.12412,-0.12092 -2.16476,0.3448 -3.97809,1.93481 -1.81929,1.55269 -3.32117,3.89677 -1.4705,2.3008 -2.65927,5.16906 -1.19471,2.83094 -2.11033,5.73223 -0.91561,2.90129 -1.58186,5.68632 -0.67218,2.74771 -1.1409,4.85069 z m 1.52634,20.1549 q 0.85843,-0.13673 1.39781,-0.83496 0.57671,-0.70418 0.93542,-1.33537 0.53509,-0.96544 0.86573,-2.01313 0.32469,-1.08501 0.54336,-2.11487 -0.73623,0.42343 -1.6353,1.02588 -0.86769,0.55917 -1.59369,1.28713 -0.69462,0.68469 -1.13557,1.52033 -0.40363,0.82969 -0.25501,1.76278 0.0535,0.33591 0.24441,0.57339 0.22228,0.19422 0.63284,0.12882 z"
         id="path1318-5"
         style="fill:#fff955;fill-opacity:1;stroke:#f8e448;stroke-width:1.074;stroke-dasharray:none;stroke-opacity:0.995413" />
      <path
         d="m 190.12012,106.91445 q 0.29477,-0.0772 0.5945,-0.11685 0.29974,-0.0397 0.59947,-0.0794 1.98574,-0.26296 3.56875,0.17551 1.58302,0.43848 2.74346,1.42852 1.16045,0.99004 1.85094,2.46168 0.72299,1.42921 0.95618,3.19014 0.27288,2.06067 -0.13634,4.44041 -0.40921,2.37974 -1.57769,4.78377 -1.16847,2.40404 -3.11109,4.71997 -1.91011,2.2735 -4.66656,4.20159 -2.75645,1.92809 -6.37908,3.36091 -3.58517,1.42785 -8.10872,2.10313 -0.1278,0.47441 -0.28861,1.56317 -0.16577,1.05129 -0.39433,2.49213 -0.19606,1.39842 -0.39485,3.06407 -0.16628,1.62321 -0.30006,3.204 -0.10128,1.53836 -0.14746,2.91693 -0.0137,1.33615 0.10539,2.23535 0.17365,1.31133 0.69819,1.24187 0.3372,-0.0446 1.30962,-1.05027 1.00989,-1.01058 2.3024,-2.47795 1.28755,-1.50483 2.73266,-3.25927 1.44512,-1.75444 2.68528,-3.32924 1.27266,-1.61724 2.14534,-2.80027 0.90519,-1.22545 1.08533,-1.59242 0.26005,-0.33943 0.61487,-0.53891 0.38732,-0.24191 0.72452,-0.28656 0.56201,-0.0744 0.63147,0.45011 0.0347,0.26227 -0.0705,0.61931 -0.22035,0.63916 -1.17566,2.06188 -0.96027,1.38524 -2.32549,3.16723 -1.36522,1.78198 -2.97782,3.7111 -1.61757,1.89164 -3.11999,3.50118 -1.50243,1.60953 -2.73216,2.68735 -1.22972,1.07781 -1.8617,1.19963 l -0.2248,0.0298 q -1.76093,0.23319 -2.75612,-1.23622 -1.00014,-1.50687 -1.35737,-4.20448 -0.30265,-2.28547 -0.12764,-5.28229 0.13257,-3.02934 0.68002,-6.38047 0.54249,-3.38861 1.48222,-6.94418 0.93974,-3.55558 2.20401,-6.96352 1.25932,-3.44541 2.83051,-6.55087 1.5712,-3.10547 3.41904,-5.56135 1.84287,-2.49334 3.91226,-4.13983 2.1019,-1.68892 4.3576,-2.21637 z m -13.20239,28.70179 q 4.11142,-0.62069 7.36931,-1.92896 3.29039,-1.3507 5.79946,-3.13166 2.50907,-1.78096 4.25169,-3.87979 1.78009,-2.10379 2.82847,-4.26318 1.04341,-2.19685 1.41243,-4.3044 0.40152,-2.14998 0.16336,-3.94838 -0.20342,-1.53613 -0.84925,-2.67057 -0.60837,-1.1394 -1.50432,-1.85947 -0.90092,-0.75755 -2.04203,-1.0258 -1.10861,-0.31068 -2.34501,-0.14695 -1.5736,0.20838 -3.19784,1.18595 -1.62424,0.97756 -2.97953,2.83448 -1.16523,1.56488 -2.16844,3.48954 -1.00818,1.8872 -1.87418,3.98432 -0.87097,2.05964 -1.61465,4.21681 -0.70621,2.1522 -1.30995,4.21458 -0.60374,2.06238 -1.11988,3.92255 -0.47868,1.8552 -0.81964,3.31093 z"
         id="path1320-4"
         style="fill:#fff955;fill-opacity:1;stroke:#f8e448;stroke-width:1.074;stroke-dasharray:none;stroke-opacity:0.995413" />
      <path
         d="m 188.32222,139.85196 q 0.48402,-0.43419 1.31037,-0.52624 0.63855,-0.0711 1.1645,0.21253 0.52596,0.28367 0.61382,1.07246 0.0502,0.45073 -0.0498,0.91821 -0.075,0.3506 -0.40442,1.4901 -0.32941,1.13949 -0.6629,2.58365 -0.30011,1.40243 -0.52091,2.83404 -0.18325,1.42743 -0.087,2.29135 0.10879,0.9766 0.63465,0.91802 0.33805,-0.0377 1.15166,-0.92687 0.85118,-0.89339 1.91926,-2.22924 1.06807,-1.33586 2.21955,-2.9472 1.15147,-1.61134 2.16944,-3.0557 1.01796,-1.44435 1.73135,-2.55056 0.75094,-1.11039 0.93866,-1.47355 0.19608,-0.28804 0.51739,-0.47594 0.35888,-0.19208 0.69694,-0.22974 0.30049,-0.0335 0.50503,0.0958 0.20036,0.0918 0.23383,0.39226 0.0335,0.30049 -0.0791,0.65528 -0.19181,0.66783 -1.03452,1.97859 -0.80514,1.30656 -1.9608,2.88034 -1.15566,1.57378 -2.52414,3.28535 -1.37266,1.674 -2.66192,3.07252 -1.28926,1.39852 -2.36581,2.31702 -1.07654,0.9185 -1.67752,0.98544 -0.90148,0.10042 -1.54012,-0.17069 -0.6762,-0.26693 -1.0812,-0.83025 -0.44256,-0.55915 -0.68067,-1.3312 -0.27985,-0.80543 -0.38445,-1.74447 -0.15063,-1.35222 -0.009,-2.81302 0.0998,-1.49419 0.40823,-2.82149 0.30849,-1.3273 0.72556,-2.36247 0.37952,-1.03099 0.78423,-1.49438 z m 2.85829,-2.33385 q -0.50076,0.28395 -0.87637,0.32579 -0.67611,0.0753 -1.1103,-0.40871 -0.43419,-0.48402 -0.50532,-1.12257 -0.10042,-0.90147 0.50456,-1.61533 0.60079,-0.75142 1.31446,-0.83092 0.75123,-0.0837 1.33985,0.42117 0.58444,0.46728 0.66394,1.18095 0.0586,0.52586 -0.26265,1.056 -0.28366,0.52596 -1.06817,0.99362 z"
         id="path1322-2"
         style="fill:#fff955;fill-opacity:1;stroke:#f8e448;stroke-width:1.074;stroke-dasharray:none;stroke-opacity:0.995413" />
      <path
         d="m 205.588,131.88897 q 0.46053,-1.67171 1.77109,-2.73501 1.30726,-1.10096 2.88854,-1.23952 1.28008,-0.11216 2.22986,0.33575 0.94647,0.41027 1.5805,1.15142 0.63402,0.74116 0.94569,1.70025 0.34603,0.91815 0.4285,1.85939 0.18805,2.14602 -0.40465,4.47427 -0.5927,2.32825 -1.47533,4.3784 0.22919,0.0179 0.45839,0.0357 0.2259,-0.0198 0.45179,-0.0396 1.20479,-0.10557 2.29139,-0.69399 1.12095,-0.62936 2.0715,-1.47143 0.98491,-0.88301 1.80932,-1.86578 0.85876,-1.02371 1.50153,-1.91468 0.31575,-0.29324 0.65459,-0.32293 0.3012,-0.0264 0.54029,0.10441 0.2391,0.1308 0.26549,0.432 0.0198,0.2259 -0.08,0.38639 -0.41686,0.87118 -1.26243,2.04549 -0.84557,1.17431 -2.07423,2.30632 -1.23195,1.09435 -2.7915,1.9139 -1.5219,0.81625 -3.32908,0.97461 -0.79064,0.0693 -1.51588,0.019 -0.49546,0.84013 -1.10387,1.69015 -0.60841,0.85002 -1.37732,1.60029 -0.73456,0.70933 -1.67715,1.20925 -0.90825,0.45897 -2.03774,0.55794 -1.46833,0.12866 -2.5687,-0.30606 -1.10038,-0.43472 -1.8196,-1.28222 -0.71922,-0.84751 -1.12268,-1.98825 -0.40677,-1.17839 -0.51894,-2.45848 -0.25402,-2.89901 0.78523,-5.7596 0.27287,-0.78268 0.69633,-1.57856 0.42346,-0.79588 0.96977,-1.4887 0.58396,-0.69613 1.25971,-1.2106 0.71011,-0.55543 1.55955,-0.81956 z m 6.07978,9.63481 q 0.37592,-0.90553 0.74523,-1.88635 0.36602,-1.01848 0.65674,-2.03036 0.28743,-1.04953 0.42755,-2.04821 0.13682,-1.03633 0.0543,-1.97757 -0.0594,-0.67769 -0.30701,-1.33889 -0.21328,-0.70214 -0.63926,-1.23389 -0.42928,-0.56941 -1.02701,-0.89642 -0.59774,-0.327 -1.42603,-0.25443 -0.90359,0.0792 -1.53509,0.66566 -0.59716,0.54553 -0.94202,1.37246 -0.31052,0.78598 -0.41629,1.74371 -0.10907,0.92008 -0.0365,1.74837 0.0891,1.01654 0.3697,2.05423 0.31827,1.0344 0.84924,1.8984 0.56532,0.82305 1.34005,1.43806 0.80907,0.57406 1.88635,0.74523 z m -1.01208,1.8718 q -1.24437,-0.34622 -2.17959,-1.06099 -0.89757,-0.71806 -1.54809,-1.64746 -0.65382,-0.96705 -1.05729,-2.10779 -0.36581,-1.14405 -0.54668,-2.34223 -0.43472,1.10037 -0.70041,2.83089 -0.26569,1.73052 -0.11723,3.42475 0.066,0.75299 0.25151,1.57138 0.21988,0.77744 0.54281,1.43204 0.36058,0.6513 0.81431,1.06681 0.48808,0.37455 1.09048,0.32177 0.52709,-0.0462 1.06214,-0.43452 0.53175,-0.42598 0.97831,-0.95831 0.44326,-0.56998 0.81121,-1.13337 0.36796,-0.56338 0.59852,-0.96297 z"
         id="path1324-5"
         style="fill:#fff955;fill-opacity:1;stroke:#f8e448;stroke-width:1.074;stroke-dasharray:none;stroke-opacity:0.995413" />
      <path
         d="m 226.90619,117.02471 q -1.28961,-0.031 -3.38092,-0.16219 -2.05602,-0.17129 -4.35673,-0.0239 -2.33842,0.14976 -4.52747,0.85802 -2.19146,0.67055 -3.67651,2.31838 -0.20939,0.27851 -0.51113,0.29783 -0.30173,0.0193 -0.54735,-0.26791 -0.28334,-0.28483 -0.3075,-0.66199 -0.0314,-0.49032 0.35691,-0.93177 1.88303,-1.93842 4.22053,-2.69406 2.33507,-0.79336 4.74893,-0.94795 2.56473,-0.16425 4.85187,0.068 2.32487,0.22982 3.91621,0.24152 0.32885,-0.77849 0.72106,-1.75039 0.42993,-0.97431 0.94254,-1.84031 0.5479,-0.90613 1.19057,-1.51536 0.64025,-0.64694 1.39458,-0.69525 0.79205,-0.0507 1.42691,0.40094 0.63487,0.45167 0.67352,1.05513 0.0217,0.33945 -0.11705,0.5377 -0.61127,1.09954 -1.01072,1.95829 -0.40187,0.82103 -0.89757,1.95104 0.53286,0.0416 1.44289,0.0591 0.94533,-0.0227 2.15226,-0.1 1.84811,-0.11836 4.01876,-0.52247 2.16823,-0.44184 4.07393,-1.43492 1.90571,-0.99309 3.16205,-2.66414 1.29406,-1.67347 1.31839,-4.25027 0.12429,-0.42455 0.37623,-0.63004 0.25194,-0.20549 0.55367,-0.22481 0.33945,-0.0217 0.61796,0.18765 0.31622,0.20697 0.34279,0.62185 0.007,0.11315 -0.0256,0.191 -0.0557,2.08649 -0.78887,3.64829 -0.73314,1.5618 -1.94545,2.73771 -1.17701,1.13578 -2.71763,1.91613 -1.54061,0.78034 -3.2137,1.26621 -1.63537,0.48345 -3.32296,0.74301 -1.68758,0.25956 -3.15852,0.35377 -1.09378,0.0701 -2.03911,0.0927 -0.94775,-0.015 -1.63147,-0.047 -0.67852,1.8234 -1.43637,4.18209 -0.76027,2.32096 -1.53893,4.94607 -0.74335,2.58498 -1.43933,5.31841 -0.65826,2.73102 -1.20821,5.37935 -0.51222,2.64592 -0.84795,5.09118 -0.30042,2.40513 -0.32809,4.33833 l 0.01,0.15087 0.0507,0.79205 q 0.0362,0.56575 0.14548,1.08895 0.10925,0.5232 0.41098,0.50387 0.33945,-0.0217 1.08077,-0.86451 0.73891,-0.88049 1.67754,-2.19035 0.93622,-1.34759 1.93338,-2.9263 1.03487,-1.58112 1.92613,-3.03944 0.92897,-1.46073 1.61325,-2.60282 0.68428,-1.14209 0.92414,-1.53616 0.16926,-0.31381 0.46375,-0.44629 0.32979,-0.1726 0.66923,-0.19434 0.33945,-0.0217 0.61313,0.11222 0.27126,0.0962 0.29059,0.39797 0.0121,0.18858 -0.15718,0.50239 -0.30322,0.58749 -1.01797,1.84515 -0.71475,1.25765 -1.67419,2.83395 -0.95945,1.57629 -2.10264,3.2401 -1.10789,1.62367 -2.26799,3.02346 -1.16011,1.39979 -2.31389,2.30685 -1.11608,0.90465 -2.05899,0.96504 -1.01835,0.0652 -1.63723,-0.72832 -0.62131,-0.83124 -0.95054,-1.83268 -0.33165,-1.03916 -0.43217,-2.01737 -0.13824,-0.9758 -0.15756,-1.27753 -0.1401,-2.18756 0.17871,-4.89684 0.27868,-2.74457 0.81413,-5.61921 0.53545,-2.87463 1.2266,-5.68349 0.68873,-2.84658 1.33585,-5.1603 0.64711,-2.31372 1.14913,-3.93646 0.53731,-1.66288 0.72979,-2.2054 z"
         id="path1326-9"
         style="fill:#fff955;fill-opacity:1;stroke:#f8e448;stroke-width:1.074;stroke-dasharray:none;stroke-opacity:0.995413" />
      <path
         d="m 237.87617,138.8998 q -0.33168,1.07363 -0.26774,2.5462 0.0295,0.67965 0.17394,1.39214 0.18054,0.67309 0.46781,1.19022 0.32502,0.5155 0.83063,0.83401 0.50561,0.31851 1.22302,0.28736 1.32153,-0.0574 2.97311,-1.22615 1.68769,-1.20817 3.31795,-2.86779 1.63026,-1.65963 2.99129,-3.42105 1.36103,-1.76142 2.06537,-2.96472 0.24464,-0.46457 0.77325,-0.48753 0.33982,-0.0147 0.61561,0.23808 0.3119,0.21343 0.3283,0.59101 0.0131,0.30207 -0.27256,0.69277 -1.1394,1.63831 -2.67939,3.63448 -1.50222,1.99453 -3.31636,3.77563 -1.77801,1.7417 -3.80388,3.00238 -2.02752,1.22292 -4.10422,1.31309 -1.43482,0.0623 -2.515,-0.4204 -1.04406,-0.52211 -1.7253,-1.40043 -0.72064,-0.91445 -1.07353,-2.07184 -0.39065,-1.15575 -0.44476,-2.40177 -0.082,-1.88791 0.6175,-4.07456 0.66171,-2.18501 1.90455,-4.05478 1.28059,-1.87142 3.0044,-3.11899 1.75993,-1.28696 3.79888,-1.37549 0.67965,-0.0295 1.40525,0.12813 0.76336,0.156 1.38717,0.58286 0.62216,0.38911 1.02926,1.05236 0.44321,0.62386 0.48256,1.53005 0.0443,1.01948 -0.44172,2.02414 -0.5927,1.16062 -1.6155,1.99945 -0.98668,0.79943 -2.20975,1.38215 -1.18531,0.58108 -2.49209,0.97829 -1.26903,0.39557 -2.42805,0.7107 z m 0.58947,-2.10621 q 0.89636,-0.2659 2.05211,-0.65655 1.19186,-0.43005 2.22614,-1.00457 1.03428,-0.57452 1.72053,-1.32308 0.68626,-0.74856 0.64527,-1.69251 -0.0262,-0.60413 -0.45797,-0.96368 -0.43174,-0.35955 -1.07362,-0.33167 -0.37759,0.0164 -0.82577,0.14934 -0.89308,0.34142 -1.58425,0.9767 -0.65342,0.63364 -1.18536,1.45116 -0.49582,0.77812 -0.87345,1.66459 -0.37764,0.88647 -0.64363,1.73027 z"
         id="path1328-2"
         style="fill:#fff955;fill-opacity:1;stroke:#f8e448;stroke-width:1.074;stroke-dasharray:none;stroke-opacity:0.995413" />
      <path
         d="m 262.45994,131.62166 q -0.36457,-1.20227 -0.86574,-1.68353 -0.50117,-0.48127 -1.06796,-0.46979 -0.86908,0.0176 -1.86864,1.0585 -0.96253,1.00234 -1.80252,2.45582 -0.84075,1.41569 -1.4525,2.94015 -0.61174,1.52445 -0.74221,2.54774 -0.0973,0.7958 -0.0789,1.70267 0.013,0.64236 0.14015,1.32021 0.16416,0.6393 0.47716,1.16218 0.31301,0.52288 0.81112,0.85301 0.49811,0.33012 1.25383,0.31481 0.90686,-0.0184 1.95492,-0.53103 1.04729,-0.55044 2.08846,-1.40317 1.07895,-0.85349 2.11629,-1.89515 1.03658,-1.07944 1.92277,-2.11804 0.88543,-1.07638 1.58423,-2.03558 0.73658,-0.95996 1.13998,-1.57295 0.33012,-0.49811 0.74577,-0.50653 0.37786,-0.008 0.64772,0.25148 0.30765,0.25838 0.3153,0.63624 0.007,0.34008 -0.25148,0.64772 -0.95565,1.34242 -2.39256,3.18601 -1.39989,1.80503 -3.10436,3.50283 -1.70524,1.66001 -3.57158,2.83187 -1.86634,1.17186 -3.71785,1.20937 -1.51145,0.0306 -2.61796,-0.47618 -1.06949,-0.54536 -1.76801,-1.43844 -0.69852,-0.89309 -1.02378,-2.02055 -0.3638,-1.16447 -0.38753,-2.33584 -0.0391,-1.92709 0.67381,-4.05842 0.67429,-2.16835 1.88449,-4.00734 1.21019,-1.83899 2.84905,-3.04404 1.67587,-1.24361 3.60296,-1.28265 0.56679,-0.0115 1.28932,0.20069 0.72176,0.17438 1.33476,0.57778 0.65078,0.40264 1.08021,1.07436 0.46645,0.63318 0.48482,1.54004 0.008,0.37787 -0.40034,0.76415 -0.37097,0.34773 -0.78661,0.35615 -0.26451,0.005 -0.49658,-0.25455 z"
         id="path1330-8"
         style="fill:#fff955;fill-opacity:1;stroke:#f8e448;stroke-width:1.074;stroke-dasharray:none;stroke-opacity:0.995413" />
      <path
         d="m 278.39184,131.65171 q 0.64441,-0.3365 1.24911,-0.33307 0.60469,0.003 1.0187,0.30813 0.45202,0.26713 0.60019,0.79709 0.18596,0.53018 -0.0449,1.24696 -0.0769,0.22633 -0.38393,1.05607 -0.30706,0.82973 -0.72942,1.99897 -0.38436,1.13165 -0.8836,2.52721 -0.46124,1.35798 -0.84688,2.7164 -0.38543,1.32062 -0.65663,2.4907 -0.2334,1.17031 -0.23769,1.92617 -0.006,0.98263 0.48574,0.98541 0.34014,0.002 1.21431,-0.86239 0.91197,-0.8641 2.09106,-2.18022 1.1793,-1.35391 2.47327,-2.93394 1.29397,-1.58003 2.43591,-3.00974 1.14215,-1.4675 1.97981,-2.55879 0.83767,-1.09129 1.10415,-1.42993 0.15181,-0.11252 0.49281,-0.26177 0.34121,-0.18703 0.68156,-0.2229 0.34057,-0.0737 0.60469,0.003 0.26413,0.0771 0.26198,0.45502 -0.002,0.30234 -0.23061,0.67899 -0.30556,0.56518 -1.25768,1.84479 -0.95211,1.27962 -2.28387,2.85943 -1.29397,1.58003 -2.81534,3.27215 -1.52137,1.69212 -2.92765,3.08254 -1.40627,1.39042 -2.58301,2.29082 -1.17673,0.90039 -1.81921,0.89675 -0.90704,-0.005 -1.50959,-0.3865 -0.60276,-0.34357 -1.01484,-0.98841 -0.37429,-0.64463 -0.55854,-1.47715 -0.14625,-0.8701 -0.14046,-1.89052 0.006,-0.98262 0.12473,-2.00239 0.15696,-1.01956 0.38994,-2.11428 -0.72386,1.01634 -1.56088,1.99425 -0.79923,0.97813 -1.67297,1.76686 -0.83574,0.75115 -1.70777,1.23753 -0.83402,0.4488 -1.62768,0.4443 -0.98262,-0.006 -1.80893,-0.91732 -0.86388,-0.94976 -0.8536,-2.76383 0.008,-1.47393 0.5471,-3.17163 0.53875,-1.69769 1.45457,-3.24207 0.87803,-1.54459 1.98089,-2.74776 1.14065,-1.20296 2.27724,-1.68784 2.00775,-0.82009 3.28822,-0.0191 1.31826,0.80116 1.83622,2.7694 0.68735,-1.24332 0.99248,-1.73291 0.34293,-0.48939 0.57097,-0.71486 z m -2.9255,2.70461 q -0.56176,-0.91025 -1.27983,-0.91432 -0.68028,-0.004 -1.36398,0.59698 -0.68349,0.56304 -1.36913,1.50401 -0.64784,0.94119 -1.22138,2.10956 -0.57354,1.16838 -0.99591,2.33761 -0.42237,1.16923 -0.69292,2.22594 -0.23276,1.05692 -0.23661,1.7372 -0.002,0.41573 0.26219,0.41723 0.30235,0.002 0.90982,-0.48617 0.64549,-0.52546 1.36784,-1.27726 0.72236,-0.75179 1.48337,-1.65454 0.7988,-0.90254 1.44578,-1.69255 0.64699,-0.79002 1.06592,-1.35456 0.45695,-0.60212 0.53318,-0.71507 0.15246,-0.2259 0.23019,-0.6034 0.0777,-0.37751 0.0801,-0.79323 0.0404,-0.45331 -0.0331,-0.83167 -0.0357,-0.37814 -0.18554,-0.60576 z"
         id="path1332-5"
         style="fill:#fff955;fill-opacity:1;stroke:#f8e448;stroke-width:1.074;stroke-dasharray:none;stroke-opacity:0.995413" />
      <path
         d="m 326.60135,117.23193 q -0.45834,1.78791 -1.13249,3.97826 -0.63643,2.19283 -1.39344,4.49136 -0.71682,2.2633 -1.5041,4.44622 -0.7471,2.14769 -1.42923,3.88301 1.02209,-1.14486 2.42076,-2.83311 1.39867,-1.68825 3.00077,-3.59039 1.60209,-1.90214 3.28457,-3.87475 1.72267,-2.00784 3.35257,-3.75665 1.6299,-1.74882 3.12188,-3.12794 1.5297,-1.37664 2.75082,-2.0918 1.33425,-0.70772 2.35249,-0.64083 1.13137,0.0743 1.70559,1.13468 0.61441,1.02512 0.4831,3.02389 -0.1214,1.84791 -0.88584,4.25958 -0.80215,2.4092 -1.82755,5.33398 -1.02292,2.88707 -2.17137,5.95527 -1.11073,3.07068 -2.26414,6.2143 -1.15092,3.10591 -2.24927,5.98803 -1.05816,2.84688 -1.97593,5.28635 -0.92024,2.47719 -1.60485,4.25023 -0.36612,0.9607 -0.86078,1.57208 -0.45944,0.65158 -1.01219,0.99402 -0.51503,0.34491 -1.09063,0.4586 -0.53789,0.11616 -1.02815,0.084 -1.01824,-0.0669 -1.71,-0.4911 -0.69424,-0.38648 -0.6491,-0.49714 0.81454,-2.59776 1.98034,-5.92995 1.20102,-3.29199 2.53996,-6.95368 1.34142,-3.6994 2.80588,-7.54222 1.46446,-3.84282 2.87883,-7.49956 1.45455,-3.69197 2.76871,-6.97653 1.31664,-3.32228 2.35746,-5.90517 -1.76093,1.4372 -3.47864,3.36962 -1.71524,1.8947 -3.40515,3.98045 -1.65219,2.08822 -3.30935,4.25187 -1.65467,2.12594 -3.29696,4.06331 -1.60209,1.90214 -3.18189,3.46487 -1.5798,1.56273 -3.1552,2.48186 -1.22359,0.75287 -2.09098,0.69589 -1.73477,-0.11397 -1.49445,-3.77208 0.0941,-1.43307 0.47705,-3.22593 0.38291,-1.79286 0.92163,-3.65123 0.54119,-1.89609 1.15533,-3.7495 0.61414,-1.85342 1.17074,-3.40762 0.5968,-1.58943 1.01302,-2.73622 0.4564,-1.18202 0.63946,-1.66237 -2.24459,3.03406 -4.24005,6.31174 -1.95776,3.28016 -3.88028,6.60051 -1.92251,3.32035 -3.91798,6.59803 -1.99547,3.27768 -4.27777,6.30927 -0.20838,0.28931 -0.82169,0.40052 -0.57312,0.076 -1.32737,0.0264 -0.64111,-0.0421 -1.31251,-0.19985 -0.67139,-0.15773 -1.22469,-0.38346 -0.55082,-0.26343 -0.90565,-0.62762 -0.31711,-0.36171 -0.28738,-0.81426 0.005,-0.0754 0.0952,-0.29675 2.23634,-6.36763 5.24234,-12.34381 3.04619,-6.01143 6.0398,-11.79905 0.12801,-0.21885 0.56267,-0.49329 0.47237,-0.27197 1.0554,-0.4988 0.62074,-0.22435 1.27176,-0.33308 0.6535,-0.14644 1.18148,-0.11176 0.56568,0.0372 0.92794,0.28822 0.36226,0.25105 0.32262,0.85445 -0.0223,0.33941 -0.24802,0.89271 -1.02843,2.39433 -2.20275,4.70332 -1.17184,2.27129 -2.38388,4.5778 -1.21203,2.30652 -2.4315,4.72617 -1.18176,2.42214 -2.22505,5.04274 1.99794,-3.31539 3.92046,-6.63574 1.96271,-3.35559 3.99837,-6.6685 0.89106,-1.45647 1.99299,-3.23997 1.14211,-1.81873 2.41773,-3.36357 1.2781,-1.58254 2.66989,-2.58949 1.39426,-1.04467 2.82734,-0.95052 1.09366,0.0718 1.71798,0.94612 0.66451,0.83904 0.55797,2.46067 -0.0124,0.18857 -0.0272,0.41484 -0.0149,0.22628 -0.0674,0.45007 z"
         id="path1334-7"
         style="fill:#fff955;fill-opacity:1;stroke:#f8e448;stroke-width:1.074;stroke-dasharray:none;stroke-opacity:0.995413" />
      <path
         d="m 354.51722,136.14553 q 0.68118,-0.3027 1.39464,-0.22132 0.63836,0.0728 1.08368,0.50399 0.44961,0.39363 0.36395,1.14464 -0.0514,0.4506 -0.25299,0.88407 -0.1008,0.21674 -0.49543,1.00858 -0.39462,0.79185 -0.94045,1.9088 -0.50399,1.08368 -1.15061,2.41736 -0.60479,1.30042 -1.13448,2.6094 -0.5254,1.27144 -0.92102,2.40552 -0.35808,1.13836 -0.44374,1.88937 -0.11135,0.9763 0.3768,1.03198 0.33796,0.0385 1.30012,-0.7266 0.99972,-0.76087 2.31368,-1.94236 1.31824,-1.21904 2.77484,-2.65054 1.45659,-1.43149 2.74585,-2.72992 1.29355,-1.33598 2.24386,-2.33071 0.95031,-0.99474 1.25171,-1.30271 0.7026,-0.49045 1.45361,-0.40479 0.26285,0.03 0.43775,0.16405 0.1749,0.13406 0.14064,0.43447 -0.0343,0.3004 -0.30239,0.65021 -0.36465,0.52899 -1.44903,1.69863 -1.08438,1.16963 -2.57852,2.59685 -1.45659,1.43149 -3.15134,2.94994 -1.69474,1.51845 -3.24257,2.74934 -1.54783,1.2309 -2.81468,1.99934 -1.26685,0.76843 -1.90521,0.69563 -0.90121,-0.10279 -1.45918,-0.54682 -0.56226,-0.40648 -0.90251,-1.09195 -0.30269,-0.68119 -0.39622,-1.52871 -0.0517,-0.88079 0.0639,-1.89465 0.11136,-0.97631 0.33965,-1.97732 0.26584,-0.99672 0.61535,-2.05999 -0.8291,0.93249 -1.76656,1.81457 -0.89991,0.88637 -1.85351,1.57642 -0.91177,0.65678 -1.83111,1.04643 -0.8775,0.35638 -1.66605,0.26644 -0.97631,-0.11136 -1.69963,-1.10679 -0.75659,-1.03726 -0.55101,-2.83968 0.16704,-1.46446 0.88547,-3.09427 0.71844,-1.6298 1.79525,-3.06658 1.03925,-1.44105 2.26527,-2.51846 1.26356,-1.07312 2.44575,-1.43279 0.98587,-0.30598 1.88708,-0.20319 1.23916,0.14133 1.93349,1.05738 0.73617,0.88278 0.9779,2.43191 0.81725,-1.16207 1.17333,-1.61596 0.39363,-0.44961 0.64463,-0.64921 z m -3.19975,2.37384 q -0.46046,-0.96545 -1.17392,-1.04683 -0.67591,-0.0771 -1.42034,0.44662 -0.74015,0.48616 -1.52313,1.34783 -0.74543,0.86595 -1.44145,1.96576 -0.69603,1.09982 -1.24185,2.21677 -0.54582,1.11695 -0.9286,2.13838 -0.34522,1.02571 -0.42231,1.70162 -0.0471,0.41305 0.21574,0.44303 0.3004,0.0343 0.95688,-0.38536 0.69832,-0.4529 1.49743,-1.12253 0.79912,-0.66963 1.65291,-1.48518 0.89135,-0.81127 1.61965,-1.52702 0.7283,-0.71574 1.20559,-1.23189 0.51913,-0.54941 0.60708,-0.65349 0.18018,-0.24572 0.30668,-0.68776 0.1265,-0.44204 0.18217,-0.9302 0.0942,-0.8261 -0.0925,-1.18975 z m -0.47421,-4.84698 q -0.12122,0.0623 -0.27142,0.0451 -0.11265,-0.0129 -0.18775,-0.0214 -0.67591,-0.0771 -0.60738,-0.6779 0.0471,-0.41305 1.04683,-1.17392 0.99971,-0.76087 2.38778,-1.59156 0.81953,-0.51514 1.71417,-1.02172 0.93646,-0.53985 1.57681,-1.15152 0.251,-0.1996 0.44304,-0.21574 0.19203,-0.0161 0.30468,-0.003 0.48816,0.0557 0.7039,0.49871 0.21574,0.44303 0.15578,0.96874 -0.0428,0.3755 -0.29055,0.87979 -0.21016,0.50857 -0.96316,1.10739 -0.74871,0.56126 -2.19046,1.19563 -1.39992,0.60111 -3.82227,1.16168 z"
         id="path1336-5"
         style="fill:#fff955;fill-opacity:1;stroke:#f8e448;stroke-width:1.074;stroke-dasharray:none;stroke-opacity:0.995413" />
      <path
         d="m 372.53878,145.07988 q -0.82319,0.95132 -1.75862,1.88659 -0.89266,0.9032 -1.87083,1.6033 -0.9354,0.66802 -1.87078,1.06881 -0.93004,0.36337 -1.75314,0.24572 -1.04757,-0.14975 -1.75834,-1.32033 -0.74283,-1.21334 -0.47009,-3.12143 0.20323,-1.42171 0.91956,-2.96097 0.72169,-1.57667 1.71595,-2.92349 0.9996,-1.38423 2.1702,-2.36224 1.17595,-1.01543 2.32512,-1.3093 0.51846,-0.15496 0.97812,-0.16561 0.50242,-0.0427 0.91397,0.0161 1.9455,0.2781 2.67755,2.63524 l 0.4491,-1.53928 q 0.13365,-0.40085 0.4597,-0.54514 0.32605,-0.14428 0.7376,-0.0855 0.37413,0.0535 0.72687,0.25661 0.39551,0.17107 0.70549,0.40627 0.30998,0.2352 0.45427,0.56125 0.18704,0.29398 0.14961,0.55587 -0.93044,5.17374 -2.60912,9.97328 -1.67334,4.76212 -3.66201,9.32645 2.35166,0.90883 4.48414,2.28263 2.1699,1.37915 3.52197,3.40496 0.22446,0.29933 0.18168,0.59864 -0.0535,0.37414 -0.39022,0.59325 -0.29933,0.22446 -0.67347,0.17098 -0.37413,-0.0535 -0.66272,-0.43834 -0.57184,-0.80712 -1.38419,-1.53408 -0.81236,-0.72697 -1.753,-1.35774 -0.94599,-0.59336 -1.9775,-1.12259 -0.99945,-0.48646 -2.00959,-0.8981 -2.427,5.22706 -5.15324,9.60961 -2.68882,4.3879 -5.60737,7.44491 -2.92389,3.09442 -6.04006,4.59607 -3.15894,1.53371 -6.45133,1.06308 -2.13257,-0.30483 -3.63974,-1.24565 -1.54458,-0.94617 -2.45309,-2.33591 -0.95127,-1.35767 -1.27716,-3.08408 -0.32589,-1.72641 -0.0585,-3.59709 0.28344,-1.98292 1.26172,-4.01922 0.93551,-2.00424 2.53913,-3.87481 1.59826,-1.83315 3.88599,-3.41503 2.28238,-1.54447 5.21679,-2.57578 2.93441,-1.03131 6.54221,-1.43188 3.60781,-0.40056 7.85158,0.0915 1.34713,-2.74714 2.35754,-5.54241 1.01041,-2.79527 2.05824,-5.5852 z m -5.23903,12.88065 q -3.93912,-0.48671 -7.19951,-0.11284 -3.2978,0.36852 -5.91686,1.33037 -2.66182,0.99392 -4.66626,2.46359 -2.04185,1.46432 -3.437,3.21197 -1.43257,1.7423 -2.23445,3.61293 -0.8393,1.86528 -1.09066,3.62372 -0.21391,1.49654 -0.0216,2.82208 0.15489,1.32019 0.73205,2.35714 0.57181,1.07436 1.5071,1.74254 0.92994,0.7056 2.23942,0.89278 2.24481,0.32088 4.33473,-0.67843 2.08457,-0.9619 4.0249,-2.78433 1.89757,-1.79037 3.61882,-4.21679 1.71589,-2.389 3.18594,-4.92768 1.50746,-2.53334 2.73698,-4.99187 1.22952,-2.45852 2.18641,-4.34518 z m 5.17011,-19.60982 q -0.67345,-0.0963 -1.43246,0.40609 -0.75366,0.46494 -1.48598,1.31471 -0.68955,0.8177 -1.37913,1.90265 -0.64681,1.05288 -1.18673,2.15922 -0.53993,1.10634 -0.91415,2.12183 -0.33681,1.02084 -0.43842,1.73169 -0.0588,0.41155 0.20306,0.44899 0.29931,0.0428 0.93004,-0.36337 0.67349,-0.43823 1.45389,-1.09023 0.7804,-0.65201 1.65702,-1.44297 0.87663,-0.79097 1.58755,-1.49108 0.71092,-0.70012 1.20269,-1.2025 0.53453,-0.53444 0.6254,-0.63598 0.28866,-0.41687 0.40631,-1.23997 0.12301,-0.86051 -0.14417,-1.66226 -0.22441,-0.83382 -1.08492,-0.95682 z"
         id="path1338-0"
         style="fill:#fff955;fill-opacity:1;stroke:#f8e448;stroke-width:1.074;stroke-dasharray:none;stroke-opacity:0.995413" />
      <path
         d="m 382.38025,143.00631 q 0.58378,-0.28635 1.40406,-0.15042 0.63385,0.10504 1.06295,0.52093 0.4291,0.41589 0.29934,1.19889 -0.0741,0.44742 -0.29743,0.87013 -0.16747,0.31703 -0.79408,1.32416 -0.62661,1.00713 -1.33993,2.30636 -0.66986,1.26812 -1.27133,2.58589 -0.56418,1.32395 -0.7063,2.18151 -0.16064,0.96942 0.36135,1.05592 0.33557,0.0556 1.36017,-0.57909 1.06189,-0.62852 2.45274,-1.62393 1.39085,-0.99541 2.93681,-2.23328 1.54596,-1.23786 2.91806,-2.35131 1.3721,-1.11344 2.35921,-1.98421 1.02439,-0.86459 1.30371,-1.16308 0.26696,-0.22393 0.62724,-0.31746 0.39757,-0.0874 0.73314,-0.0317 0.29828,0.0494 0.45999,0.22946 0.16789,0.14275 0.11846,0.44103 -0.0494,0.29829 -0.25418,0.60914 -0.36603,0.5906 -1.53317,1.62308 -1.12986,1.03866 -2.66964,2.23924 -1.53978,1.20058 -3.32181,2.47595 -1.77585,1.23808 -3.39659,2.2337 -1.62074,0.99562 -2.90634,1.58707 -1.2856,0.59145 -1.88216,0.49259 -0.89485,-0.14829 -1.43581,-0.58272 -0.57824,-0.44061 -0.81494,-1.09278 -0.274,-0.65836 -0.29338,-1.46606 -0.0505,-0.85117 0.10397,-1.78331 0.22244,-1.34227 0.75552,-2.70968 0.50197,-1.41087 1.15947,-2.60443 0.65751,-1.19355 1.34015,-2.07647 0.64536,-0.88909 1.16075,-1.22508 z m 3.38487,-1.46946 q -0.55907,0.13721 -0.93192,0.0754 -0.67114,-0.11122 -0.95749,-0.695 -0.28635,-0.58378 -0.18131,-1.21763 0.14829,-0.89485 0.92447,-1.41748 0.78235,-0.55992 1.49077,-0.44252 0.74571,0.12357 1.17502,0.76936 0.43549,0.60849 0.3181,1.31691 -0.0865,0.522 -0.53968,0.94492 -0.4159,0.4291 -1.29796,0.66602 z"
         id="path1340-5"
         style="fill:#fff955;fill-opacity:1;stroke:#f8e448;stroke-width:1.074;stroke-dasharray:none;stroke-opacity:0.995413" />
      <path
         d="m 405.74642,143.83862 q -0.11091,-1.25141 -0.50304,-1.82503 -0.39212,-0.57361 -0.94927,-0.67831 -0.8543,-0.16055 -2.04565,0.65385 -1.14722,0.78424 -2.26678,2.03515 -1.11258,1.21376 -2.02324,2.58084 -0.91065,1.36708 -1.2477,2.34203 -0.25802,0.75907 -0.42555,1.65052 -0.11867,0.63144 -0.13288,1.32097 0.0299,0.65936 0.22933,1.23521 0.19942,0.57586 0.61946,1.00089 0.42005,0.42504 1.16292,0.56465 0.89144,0.16753 2.02221,-0.11989 1.13774,-0.32455 2.33133,-0.94626 1.23074,-0.61473 2.45923,-1.42215 1.23547,-0.84457 2.31539,-1.67992 1.08689,-0.87249 1.96713,-1.66845 0.91738,-0.78898 1.43765,-1.30649 0.42504,-0.42005 0.83362,-0.34326 0.37143,0.0698 0.58257,0.37867 0.24829,0.31585 0.17849,0.68728 -0.0628,0.3343 -0.37868,0.58258 -1.21004,1.11854 -2.9937,2.62919 -1.73954,1.48049 -3.75528,2.79371 -2.00876,1.27608 -4.07535,2.04136 -2.06659,0.76529 -3.88663,0.42325 -1.48574,-0.27922 -2.46518,-1.00166 -0.93531,-0.7526 -1.43637,-1.7697 -0.50105,-1.01709 -0.58879,-2.18724 -0.1179,-1.21427 0.0985,-2.36573 0.356,-1.89432 1.48978,-3.83475 1.10361,-1.98456 2.66441,-3.53709 1.5608,-1.55254 3.41151,-2.39685 1.89483,-0.87448 3.78915,-0.51848 0.55716,0.10471 1.221,0.4602 0.67083,0.31834 1.18834,0.83861 0.55466,0.52724 0.83759,1.27261 0.32705,0.71521 0.15952,1.60665 -0.0698,0.37144 -0.54818,0.66609 -0.43426,0.26449 -0.84284,0.1877 -0.26001,-0.0489 -0.43401,-0.35075 z"
         id="path1342-3"
         style="fill:#fff955;fill-opacity:1;stroke:#f8e448;stroke-width:1.074;stroke-dasharray:none;stroke-opacity:0.995413" />
      <path
         d="m 421.37103,147.15803 q 0.70013,-0.19577 1.291,-0.0672 0.59088,0.12856 0.93283,0.51238 0.38691,0.35493 0.42214,0.90409 0.0722,0.55719 -0.30209,1.21064 -0.12207,0.20551 -0.59427,0.95369 -0.47221,0.74817 -1.12753,1.80461 -0.61034,1.02755 -1.38773,2.28949 -0.73242,1.23306 -1.39097,2.48218 -0.65053,1.21219 -1.15812,2.30077 -0.47067,1.09661 -0.63137,1.83521 -0.20891,0.96018 0.27118,1.06463 0.33237,0.0723 1.36656,-0.59226 1.07112,-0.65655 2.49717,-1.70001 1.43408,-1.08038 3.02717,-2.35825 1.59308,-1.27786 3.00631,-2.44014 1.42125,-1.19921 2.46673,-2.0934 1.04547,-0.8942 1.37629,-1.17032 0.17182,-0.0787 0.53633,-0.15405 0.37255,-0.11234 0.71295,-0.0769 0.34844,-0.002 0.59088,0.12856 0.24243,0.1301 0.16208,0.4994 -0.0643,0.29544 -0.3662,0.61653 -0.41597,0.48966 -1.6124,1.5444 -1.19644,1.05474 -2.82645,2.32456 -1.59309,1.27787 -3.43185,2.61831 -1.83877,1.34044 -3.50247,2.40954 -1.6637,1.06911 -3.00136,1.70634 -1.33766,0.63723 -1.96547,0.50064 -0.88632,-0.19285 -1.39684,-0.6907 -0.51856,-0.46093 -0.7882,-1.17712 -0.2327,-0.70816 -0.24058,-1.56079 0.0371,-0.88153 0.25403,-1.87863 0.20891,-0.96018 0.53665,-1.93317 0.36466,-0.96497 0.81926,-1.98772 -0.91861,0.84444 -1.93998,1.62784 -0.98444,0.79144 -2.00256,1.38216 -0.97315,0.56183 -1.92699,0.85711 -0.90888,0.26639 -1.68441,0.0976 -0.96017,-0.20891 -1.57979,-1.272 -0.64851,-1.10805 -0.26282,-2.88068 0.31336,-1.44026 1.19195,-2.98961 0.8786,-1.54935 2.09435,-2.87063 1.17882,-1.32932 2.5069,-2.27806 1.36502,-0.9407 2.57737,-1.17974 2.13404,-0.3866 3.22092,0.66212 1.12381,1.05675 1.22301,3.08959 0.92989,-1.07405 1.32978,-1.48986 0.43683,-0.40777 0.70661,-0.58114 z m -3.42211,2.04025 q -0.36111,-1.00684 -1.06277,-1.15951 -0.66474,-0.14463 -1.45804,0.30162 -0.78526,0.40932 -1.65087,1.18793 -0.82868,0.78665 -1.63171,1.81095 -0.80304,1.0243 -1.45835,2.08074 -0.65531,1.05644 -1.1388,2.03423 -0.44656,0.98582 -0.59119,1.65056 -0.0884,0.40622 0.17012,0.46247 0.29544,0.0643 0.99077,-0.28725 0.7403,-0.38042 1.60267,-0.96635 0.86236,-0.58593 1.7938,-1.31155 0.96836,-0.71758 1.76491,-1.35651 0.79654,-0.63893 1.32329,-1.10449 0.57172,-0.49446 0.66968,-0.58918 0.19593,-0.18943 0.35014,-0.54266 0.15421,-0.35323 0.2426,-0.75946 0.13335,-0.43512 0.13984,-0.82049 0.0434,-0.37733 -0.0561,-0.63105 z"
         id="path1344-7"
         style="fill:#fff955;fill-opacity:1;stroke:#f8e448;stroke-width:1.074;stroke-dasharray:none;stroke-opacity:0.995413" />
    </g>
  </g>
</svg>
